<svg xmlns="http://www.w3.org/2000/svg" viewBox="0 0 959.62 531.54"><defs><style>.cls-1{isolation:isolate;}.cls-2{opacity:0.18;}.cls-3{fill:#647ddd;}.cls-4{fill:#89bdec;}.cls-5{fill:#ffc2b0;}.cls-6{fill:#304483;}.cls-7{fill:#dceffe;}.cls-8{fill:#4263c0;}.cls-9{fill:#75a3ec;}.cls-10{mix-blend-mode:multiply;}.cls-11{fill:#fff;}.cls-12{fill:#715154;}.cls-13{fill:#80ddfd;}.cls-14{fill:#ffdd4d;}.cls-15{fill:#bee1fc;}.cls-16{fill:#f70;}.cls-17{opacity:0.42;}.cls-18{fill:#95cef9;}.cls-19{fill:#f0a32f;}.cls-20{fill:#f8c22d;}.cls-21{fill:#efb530;}.cls-22{fill:#ffd22e;}.cls-23{fill:#bf7e20;}.cls-24{fill:#659dea;}</style></defs><title>design-image-award</title><g class="cls-1"><g id="Layer_2" data-name="Layer 2"><g id="Layer_3" data-name="Layer 3"><g class="cls-2"><ellipse class="cls-3" cx="407.77" cy="473.29" rx="41.64" ry="24.04"/></g><g class="cls-2"><ellipse class="cls-3" cx="533.38" cy="474.88" rx="41.64" ry="24.04"/></g><g class="cls-2"><ellipse class="cls-3" cx="244.52" cy="507.5" rx="41.64" ry="24.04"/></g><g class="cls-2"><ellipse class="cls-3" cx="66.33" cy="506.98" rx="57.6" ry="24.04"/></g><path class="cls-4" d="M127.63,189.25c.65,2,4.67,2.51,9,1.11s7.28-4.15,6.62-6.16-4.67-2.51-9-1.12S127,187.24,127.63,189.25Z"/><circle class="cls-5" cx="126.98" cy="171.68" r="9.73" transform="translate(-82.58 130.64) rotate(-42.43)"/><path class="cls-5" d="M126,171.57l4.32-3.77a3.24,3.24,0,0,1,5.2,1.5l5.9,15.95-.45.51a10,10,0,0,1-7,3.22,12.6,12.6,0,0,1-2.47-.08l-.55-.08-2.16-7.58Z"/><path class="cls-4" d="M102.72,260.9l33.65-28.6a3.81,3.81,0,0,0,1.18-3.94l-8.07-39.73,1.38.19.55.08a11.93,11.93,0,0,0,2.47.07,9.91,9.91,0,0,0,7-3.21l.45-.51,1-1.07s16,49.76,15.86,52.36a10.18,10.18,0,0,1-3.53,7l-10.25,8.82-28.35,24a10.24,10.24,0,0,1-13.35-15.52Z"/><path class="cls-6" d="M93.15,489.12a5.14,5.14,0,0,0-4.5,3.37,14.94,14.94,0,0,0-.79,5.88c0,1.75.07,3.69,1.31,4.92a6.61,6.61,0,0,0,3,1.4A34.86,34.86,0,0,0,98.4,506c2.39.21,4.81-.07,7.18.29,1.51.23,3,.72,4.46,1.07a25.51,25.51,0,0,0,12.81-.33,4.9,4.9,0,0,0,2.49-1.37,3.61,3.61,0,0,0-.35-4.41,10.61,10.61,0,0,0-4-2.61l-13.09-6c-4.29-2-8.72-4-13.43-4.08-1.51,0-3.49.65-3.36,2.15Z"/><rect class="cls-7" x="91.63" y="477.13" width="10.93" height="19.37" rx="5.25" transform="matrix(1, 0.08, -0.08, 1, 39.69, -6.26)"/><path class="cls-6" d="M92.19,325.33,64.58,334.9,53.91,356l2.86,75.22a39.06,39.06,0,0,0,9.46,5.19c.1,0,.19.08.29.12a13.74,13.74,0,0,1,3-1,15.35,15.35,0,0,0,11.85-13.86l.11-7.63,2.29-31.36,5.74-2.32,2.63,37.58-3.09,62A6.42,6.42,0,0,0,96,486.64l3.2-.24a6.42,6.42,0,0,0,5.88-5.48l10.42-68.85V337.66Z"/><path class="cls-8" d="M100,478H95.91c-1.88,0-5.59-.83-6.29-3.15-.51-1.68-2-.58-2,1.2v4.69a8.39,8.39,0,0,0,8.26,8.51H100a8.36,8.36,0,0,0,8.23-7.79v-5.83a1,1,0,0,0-1.76-.51C105.49,476.61,103.85,478,100,478Z"/><path class="cls-4" d="M115.51,270.88l4.11,61.93a22.59,22.59,0,0,1-12.69,21.83l-10.67,5.17a41.86,41.86,0,0,1-35.91,3.89l-6.78-2.41,2.51-85.52a14.56,14.56,0,0,1,4-9.47,13.56,13.56,0,0,1,3.17-2.58l6.06-3.83L71,258.83c4.58-3.21,13.46-6.51,21.45-7.48a36.27,36.27,0,0,1,4.54-.3,16.41,16.41,0,0,1,8.13,1.72A21,21,0,0,1,115.51,270.88Z"/><path class="cls-9" d="M69.85,365.84a42.08,42.08,0,0,1-9.5-2.14l-6.78-2.41,2.51-85.52a14.56,14.56,0,0,1,4-9.47,31.75,31.75,0,0,1,4,.65,4.11,4.11,0,0,1,1.1.45A10.42,10.42,0,0,1,70,270c3,3.14,2.27,8.23.79,12.33s-3.44,8.43-2.31,12.63c.83,3,3.13,5.44,3.75,8.51,1.28,6.47-5.57,22.65-4.92,29.23.38,3.75,3.1,6.78,4.82,10.12C75.81,350.07,74.33,359,69.85,365.84Z"/><ellipse class="cls-4" cx="85.8" cy="258.8" rx="10.74" ry="7.7"/><path class="cls-5" d="M94.38,240.24v18.08h-.1c-.59,2.82-4.1,4.93-8.48,4.93s-7.88-2.11-8.47-4.93h-.1V240.24a7.77,7.77,0,0,1,2.52-5.68,8.78,8.78,0,0,1,4.92-2.29c.45,0,.92-.06,1.41-.06a9.57,9.57,0,0,1,2.93.55,8.68,8.68,0,0,1,3,2A7.76,7.76,0,0,1,94.38,240.24Z"/><g class="cls-10"><path class="cls-5" d="M94.38,240.24V244L77.23,254.85V240.24a7.77,7.77,0,0,1,2.52-5.68,8.78,8.78,0,0,1,4.92-2.29c.45,0,.92-.06,1.41-.06a9.57,9.57,0,0,1,2.93.55,8.68,8.68,0,0,1,3,2A7.76,7.76,0,0,1,94.38,240.24Z"/></g><path class="cls-6" d="M18,477.86c-.24,9.46-2.54,19.81-5.14,28.37-.4,1.34-1.11,2.91-2.5,3a3.46,3.46,0,0,1-2.64-1.42C.2,499.77-.73,487.54.4,476.53c.3-3,.86-6.17,3.1-8.12,3.29-2.88,11.21-2.36,13.82,1.39a4.21,4.21,0,0,1,.55,2.05A56.56,56.56,0,0,1,18,477.86Z"/><path class="cls-7" d="M23.73,465.87c.88.53,1.75,1.08,2.6,1.67.33.23.72,1.92,1,2.17l.14.16a11.84,11.84,0,0,0,.8,2.16c-.18.15-.36.29-.56.43l-12,7a7,7,0,0,1-7.94-11.58l8.54-7.14C18.79,461.93,21.31,464.43,23.73,465.87Z"/><path class="cls-6" d="M78.74,429.36a10.14,10.14,0,0,1-2.26,2.71l-19.33,16.3L28.08,471.7c-1.71,1.43-3.74.93-5.8,1.07a9.81,9.81,0,0,1-2.36-.1,10.39,10.39,0,0,1-4-1.57c-.77-.53-1.48,1.3-2.1.56-1.16-1.38-.67-1.75-1-3.42a9.56,9.56,0,0,1-.17-2.39h0c.14-2.69,1.36-6.6,3.58-8.47L56.93,422.1l6.52-5.5a10.12,10.12,0,0,1,14.25,1.21,10,10,0,0,1,1.77,3.07A10.13,10.13,0,0,1,78.74,429.36Z"/><path class="cls-8" d="M28.23,472c-10.06,0-13.4-9.29-10.55-16.46a2,2,0,0,0-2.6-.32l-4.2,2.82a9.16,9.16,0,0,0-2.51,12.71l2.53,3.78A9.16,9.16,0,0,0,23,477.46c1.18-.79,2.49-1.37,3.66-2.2C26.74,475.17,30,472,28.23,472Z"/><path class="cls-6" d="M74.63,230.72a4.34,4.34,0,0,0-.87-2.56c.38.34.23.12-.47-.66a4.23,4.23,0,0,0-1.11-.72,4.16,4.16,0,0,0-6,3.49,4,4,0,0,0,2.67,4.1,4.3,4.3,0,0,0,4.32,4.12C77.76,238.49,78,232.51,74.63,230.72Z"/><path class="cls-6" d="M119.74,224.86c1.81-1.68,1.52-5.21-.87-6.33,2.87-1.73,2.09-7.28-2.16-7.28a4.59,4.59,0,0,0-.67.07c2-2.26.71-7.12-3.37-7.12a4.92,4.92,0,0,0-.8.08,4.36,4.36,0,0,0-4.37-4,3.47,3.47,0,0,0-3,1.45,3.58,3.58,0,0,0-3.52-2.4,3.62,3.62,0,0,0-2.12.63,4.27,4.27,0,0,0-1-2.38A4.62,4.62,0,0,0,94.59,196a4.72,4.72,0,0,0-4.93,3.48,3.78,3.78,0,0,0-3.57-2.58,3.84,3.84,0,0,0-3.78,3.82,4.17,4.17,0,0,0,.15.87,4.52,4.52,0,0,0-3.71-1.83c-3.13,0-4.17,2.71-3.51,5.11a4.1,4.1,0,0,0-2.21-.61c-5.31,0-4.72,8.23.58,8.23,3,0,4.08-2.56,3.58-4.82a4.55,4.55,0,0,0,2.63.79c3.23,0,4.23-2.87,3.45-5.32a3.68,3.68,0,0,0,2.86,1.36,4,4,0,0,0,3.57-2.54,4,4,0,0,0,.92,1.79,4.66,4.66,0,0,0,3.21,1.65,5.05,5.05,0,0,0,3.44-1.11l.15-.16a3.62,3.62,0,0,0,3.68,3,3.44,3.44,0,0,0,3-1.48,4.25,4.25,0,0,0,4.16,3.08,4.2,4.2,0,0,0,.81-.08,4.23,4.23,0,0,0,4.25,3.87,4.07,4.07,0,0,0,.72-.08,4.15,4.15,0,0,0,1.27,6.33,4,4,0,0,0,.26,6.66c-2.25,2.05-1.31,6.9,2.67,6.9C122.55,232.28,123,226.43,119.74,224.86Z"/><path class="cls-6" d="M71.86,221.32c3.81-1.42,2.53-8.33-2.43-8.33-4.42,0-4.69,5.45-1.83,7.66-3.63,1.45-2.56,8.06,2.23,8.06C74.09,228.71,74.52,223.5,71.86,221.32Z"/><path class="cls-6" d="M108.48,224.24c0,12-8.93,21.75-20,21.75a18.66,18.66,0,0,1-11.73-4.15,22.36,22.36,0,0,1-8.23-17.6A23.56,23.56,0,0,1,71.4,213,20.9,20.9,0,0,1,79,205.12a18.74,18.74,0,0,1,9.53-2.63c.42,0,.85,0,1.27,0a18.64,18.64,0,0,1,7.66,2.23A22,22,0,0,1,108.48,224.24Z"/><path class="cls-6" d="M117,225.82c0,12-8.93,21.75-20,21.75a18.69,18.69,0,0,1-11.73-4.16,22.36,22.36,0,0,1-8.23-17.59,23.56,23.56,0,0,1,2.85-11.22,21,21,0,0,1,7.58-7.91,18.73,18.73,0,0,1,9.53-2.62c.42,0,.85,0,1.27,0a18.64,18.64,0,0,1,7.66,2.23A22,22,0,0,1,117,225.82Z"/><path class="cls-5" d="M115.57,229.46a20.57,20.57,0,0,1-20.8,20.33,21,21,0,0,1-12.22-3.89A20.16,20.16,0,0,1,74,229.46a20.56,20.56,0,0,1,20.78-20.35c.44,0,.89,0,1.32,0A20.53,20.53,0,0,1,115.57,229.46Z"/><path class="cls-6" d="M80.51,224.05a7,7,0,0,1,1.74-3.5l1.5-1.49.15-.14c.43-4.78,3.58-10,7.63-12.2l-7.2,2.39-2.06,3.15v-3.64A21.46,21.46,0,0,0,71.53,223h7.65v1Z"/><path class="cls-5" d="M81.65,227.78a6.21,6.21,0,1,1-6.21-6.21A6.21,6.21,0,0,1,81.65,227.78Z"/><path class="cls-6" d="M101.07,209.62H95.4c-10.83,0-12.08,10.74-12.08,18.92a2.24,2.24,0,0,1-4.48,0v-7.47c-1.49.17-2.93.23-3-.11s-.74-1.9-1.73-4.14a21.31,21.31,0,0,1,7.86-7.91,19.87,19.87,0,0,1,9.85-2.63c.43,0,.89,0,1.32.05a19.82,19.82,0,0,1,7.9,2.48Z"/><path class="cls-11" d="M100.33,235.29A9.09,9.09,0,0,0,111,230.58a1.31,1.31,0,0,0-.82-1.85l-14.82-4.14a1.29,1.29,0,0,0-1.65,1A9.07,9.07,0,0,0,100.33,235.29Z"/><path class="cls-6" d="M113.3,224.86a1.53,1.53,0,0,1-.8-.66,3.26,3.26,0,0,0-1.78-1.5c-.69-.21-1.18,0-1.3.56-.07.34-.47.38-.89.1a1.26,1.26,0,0,1-.62-1.11c.23-1.05,1.17-1.46,2.46-1.07a6.27,6.27,0,0,1,3.36,2.83c.26.43.19.83-.15.88A.69.69,0,0,1,113.3,224.86Z"/><path class="cls-6" d="M98.51,220.39a1.53,1.53,0,0,1-.79-.67,3.26,3.26,0,0,0-1.78-1.5c-.69-.21-1.18,0-1.3.57-.08.33-.47.38-.89.09a1.23,1.23,0,0,1-.62-1.11c.23-1.05,1.17-1.45,2.45-1.06A6.28,6.28,0,0,1,99,219.53c.25.44.18.83-.16.88A.55.55,0,0,1,98.51,220.39Z"/><path class="cls-4" d="M44.88,195.39c-.66,2-4.67,2.51-9,1.12s-7.27-4.16-6.62-6.17,4.67-2.51,9-1.11S45.53,193.38,44.88,195.39Z"/><path class="cls-5" d="M42.15,187a9.73,9.73,0,1,0-5.74-12.5A9.73,9.73,0,0,0,42.15,187Z"/><path class="cls-5" d="M46.56,177.72l-4.32-3.78a3.24,3.24,0,0,0-5.2,1.5l-5.91,16,.45.5a10,10,0,0,0,7,3.22,11.87,11.87,0,0,0,2.47-.08l.55-.07,2.15-7.58Z"/><path class="cls-4" d="M69.79,267l-33.66-28.6A3.81,3.81,0,0,1,35,234.51L43,194.77l-1.38.19-.55.08a12.6,12.6,0,0,1-2.47.08,9.91,9.91,0,0,1-7-3.21l-.45-.51-1-1.08S14.11,240.09,14.3,242.68a10.25,10.25,0,0,0,3.53,7l10.25,8.81,28.35,24A10.24,10.24,0,0,0,69.79,267Z"/><path class="cls-6" d="M397.8,459.79c.08,2.09-.42,4.18-2.07,5.09a7.12,7.12,0,0,1-2.48.67,94.2,94.2,0,0,1-25.16.08c-5.75-.76-1.72-4.45,1.25-5.65l1.46-.59,9.65-3.88c3.63-1.46,7.4-2.94,11.39-3a4.88,4.88,0,0,1,1.41.18,2.94,2.94,0,0,1,1,.45,4.6,4.6,0,0,1,2.59,2.32A12,12,0,0,1,397.8,459.79Z"/><path class="cls-6" d="M414.16,476.39c-.67,1.21-1.35,2.4-2,3.6a29.39,29.39,0,0,0-1.79,3.76c-.7,1.93-2,5.69-.36,7.44,2.5,2.64,6.59.38,8.63-1.48a82.27,82.27,0,0,0,8.43-9,11,11,0,0,0,2.54-4.58c1-5.3-2.06-12.82-8.57-11.06-2.38.64-3.39,2.31-4,4.47A30.08,30.08,0,0,1,414.16,476.39Z"/><path class="cls-5" d="M394.49,319.58l32.4-4.92,1.36,15.8-4,66.05,4.62,71.06c0,3.16-2.28,5.72-5.08,5.72h-3.5c-2.64,0-3.64-2.28-3.86-5.24l-11.2-71.67-4.32-27.16-1.45-26.67-5,57.2,2.38,53.53c.14,3.33-2.34,6.06-5.3,5.81l-2.46-.2a5.23,5.23,0,0,1-4.53-4.75l-8-59.44-1.95-83.56Z"/><path class="cls-5" d="M417.29,470.2q-1,3.42-2,6.84a8.81,8.81,0,0,0-.5,3.21,2.82,2.82,0,0,0,1.74,2.49c1.17.34,2.33-.51,3.29-1.31l3.34-2.78c2-1.66,4.09-3.49,4.79-6.06.81-3-.52-6.15-1.82-9-.63-1.37-1.42-2.88-2.82-3.27a3.53,3.53,0,0,0-2.74.6,6.86,6.86,0,0,0-2.93,4.05c-.58,2.18-.12,4.55-.7,6.72Z"/><path class="cls-5" d="M395.43,453.64c1.68,1.42,2.5,3.41.87,5.34-2.47,2.94-14.82,1.79-18.3,2-1.34.1-3,.06-3.65-1.09a1.69,1.69,0,0,1-.21-.54c.07.34,13.57-7.18,15-7.6C390.9,451.26,393.64,452.12,395.43,453.64Z"/><path class="cls-6" d="M380.49,292.72l-3.81,5.84a27.38,27.38,0,0,0-4.5,15.36l1,79.31s36.33,17.74,55.13-2.38l.82-56.77s4.47-32-9-39.44Z"/><path class="cls-9" d="M374.36,287.19h0a6.52,6.52,0,0,1-8.91-2.35l-18.74-32.21a6.52,6.52,0,0,1,2.35-8.91h0a6.52,6.52,0,0,1,8.91,2.35l18.74,32.22A6.5,6.5,0,0,1,374.36,287.19Z"/><rect class="cls-9" x="374.43" y="235.6" width="14.73" height="50.76" rx="6.97" transform="translate(639.21 645.18) rotate(-158.18)"/><path class="cls-12" d="M414,205.38l.57,3.33a2.39,2.39,0,0,1-.13-.21A29.64,29.64,0,0,0,414,205.38Z"/><path class="cls-12" d="M373.76,218.45a22.81,22.81,0,0,1-.05-10.49c1.71-6.63,7.14-11.7,13.05-15.16,7.72-4.55,18.27-6.7,25.2-1,7.74,6.36,8.2,17.37,9.6,26.31,2.16,13.8,11.79,14.09,21.9,20.42A21,21,0,0,1,452.08,262c-6.92,21.94-39.05,18.48-54.58,10.52C392,269.62,381,263.72,379.4,257c-.8-3.34,1.34-6.72,1.6-10.06.39-4.83-.83-9.78-2.46-14.29S374.79,223.25,373.76,218.45Z"/><path class="cls-13" d="M366.55,231.32l-11.95-6.57a1.53,1.53,0,0,0-1.09-.16h0a1.38,1.38,0,0,0-.48.25l-2.44,1.26,2.14,1.16,3,22a1.84,1.84,0,0,0,.93,1.33l9.08,5,1.37,3,2.87-1.4h0a1.31,1.31,0,0,0,.69-1.39l-3.18-23.21A1.8,1.8,0,0,0,366.55,231.32Z"/><path class="cls-6" d="M366.33,258.28l-11.95-6.56a1.85,1.85,0,0,1-.93-1.33l-3.17-23.21a1.33,1.33,0,0,1,2.06-1.34l11.94,6.57a1.83,1.83,0,0,1,.93,1.33L368.38,257A1.32,1.32,0,0,1,366.33,258.28Z"/><path class="cls-9" d="M428.23,254.9l-2.78,10.39-4.19,31.58a7.5,7.5,0,0,1-3.83,4.82c-5,2.49-17.14,3.72-31.56-2.39-2.24-.95-6.33-3-6.82-5.58l-4.51-23.4-.09-.47A16.54,16.54,0,0,1,376,259.21l5.27-10.11v-5.4c0-6.42,5.67-11,11.35-9.24l2,.68,3.14,1.09,13.85,4.83,4.05,1.41,7.88,2.74A8,8,0,0,1,428.23,254.9Z"/><path class="cls-4" d="M428.23,254.9l-2.78,10.39c-1.39,1.72-2.77,3.44-4.17,5.16-2.94,3.64-6,7.37-10.09,9.28-6.79,3.17-14.59.59-21.48-2.34-4.26-1.79-8.49-3.71-12.64-5.75a27.74,27.74,0,0,1-2.53-1.32l-.09-.47A16.54,16.54,0,0,1,376,259.21l5.27-10.11v-5.4c0-6.42,5.67-11,11.35-9.24l2,.68,3.14,1.09,13.85,4.83,4.05,1.41,7.88,2.74A8,8,0,0,1,428.23,254.9Z"/><path class="cls-5" d="M415.6,242.47a38.34,38.34,0,0,1-7.48,8.51,20.77,20.77,0,0,1-7.13,4.57,8.62,8.62,0,0,1-8.08-1.1,8.34,8.34,0,0,1-2.78-6.08,17.28,17.28,0,0,1,1.29-6.72,36.81,36.81,0,0,1,3.14-6.51l3.14,1.09,13.85,4.83Z"/><path class="cls-7" d="M370.07,266.44l.16.34h-.13C370.1,266.68,370.08,266.56,370.07,266.44Z"/><ellipse class="cls-5" cx="353.88" cy="247.79" rx="9.09" ry="7.2" transform="translate(-77.88 262.45) rotate(-36.95)"/><path class="cls-12" d="M402.61,192.72c-1.13.29-2.5.53-3.36-.27-1.09-1-.49-2.85.31-4.12s1.77-2.78,1.16-4.15a3.64,3.64,0,0,0-3-1.72,12.46,12.46,0,0,0-8.42,2c-4,2.65-6.05,7.31-7.61,11.82-.2.56-.36,1.25,0,1.68a1.58,1.58,0,0,0,1,.41,25.33,25.33,0,0,0,17.49-3.86Z"/><path class="cls-12" d="M378.58,210.53c0,10.92,8.37,19.77,18.72,19.77a17.83,17.83,0,0,0,11-3.78,20.07,20.07,0,0,0,7.71-16,21.35,21.35,0,0,0-.4-4.1,21.07,21.07,0,0,0-2.26-6.09,19.24,19.24,0,0,0-7.11-7.19,18,18,0,0,0-8.93-2.39c-.39,0-.8,0-1.19,0a17.92,17.92,0,0,0-7.18,2A20,20,0,0,0,378.58,210.53Z"/><polygon class="cls-5" points="391.55 225.43 392.07 227.18 396.77 242.88 413.82 244.15 413.04 241.87 405.69 220.34 391.55 225.43"/><g class="cls-10"><polygon class="cls-5" points="391.55 225.43 392.07 227.18 413.04 241.87 405.69 220.34 391.55 225.43"/></g><path class="cls-5" d="M374.37,211.82c0,10.21,8.72,18.48,19.49,18.48a20.07,20.07,0,0,0,11.46-3.53,18.16,18.16,0,0,0,8-15c0-10.22-8.72-18.49-19.48-18.49-.41,0-.83,0-1.24,0C382.43,194,374.37,202,374.37,211.82Z"/><path class="cls-12" d="M408.19,205.3c-5.07-1.06-9.4-3.62-11.72-9.3a4.42,4.42,0,0,1-.29-3.33c1.28-3,9.78.53,9.78,3.52v-3.31A19.49,19.49,0,0,1,415.72,206,37.09,37.09,0,0,1,408.19,205.3Z"/><path class="cls-5" d="M406.53,210.3a5.64,5.64,0,1,0,5.64-5.64A5.63,5.63,0,0,0,406.53,210.3Z"/><path class="cls-11" d="M387.33,217.13a8.27,8.27,0,0,1-9.68-4.29,1.19,1.19,0,0,1,.75-1.67l13.47-3.77a1.17,1.17,0,0,1,1.5.95A8.25,8.25,0,0,1,387.33,217.13Z"/><path class="cls-12" d="M375.55,207.65a1.35,1.35,0,0,0,.72-.61,3,3,0,0,1,1.62-1.36c.63-.19,1.07,0,1.18.51.07.31.43.35.81.09a1.16,1.16,0,0,0,.57-1c-.21-1-1.07-1.32-2.24-1a5.74,5.74,0,0,0-3.06,2.57c-.23.4-.16.75.14.8A.78.78,0,0,0,375.55,207.65Z"/><path class="cls-12" d="M389,203.58a1.35,1.35,0,0,0,.72-.61,3,3,0,0,1,1.62-1.36c.63-.19,1.07,0,1.18.52.07.3.43.34.81.08a1.12,1.12,0,0,0,.56-1c-.21-.95-1.06-1.32-2.23-1a5.74,5.74,0,0,0-3.06,2.57c-.23.4-.17.76.14.8A.47.47,0,0,0,389,203.58Z"/><path class="cls-5" d="M419.72,256.9a8.4,8.4,0,0,0,9.83-5.92c.06-.2.06-.42.11-.64l16.57-77,1.8-8.44,2-9.34-4.33-3.31a3.09,3.09,0,0,0-4.84,1.76l-27.29,92.27A8.3,8.3,0,0,0,419.72,256.9Z"/><path class="cls-5" d="M446.45,164.57a9.24,9.24,0,1,0-6.24-11.48A9.25,9.25,0,0,0,446.45,164.57Z"/><path class="cls-4" d="M412.42,245.91l22.89-77.39,1.44,1.41a9.46,9.46,0,0,0,6.87,2.61,11.9,11.9,0,0,0,2.34-.23l1.81-.38-16.88,78.5c0,.08,0,.18-.05.29a4.67,4.67,0,0,1-.13.6,9.55,9.55,0,0,1-11.24,6.76,9.28,9.28,0,0,1-6.12-4.37A9.86,9.86,0,0,1,412.42,245.91Z"/><g class="cls-2"><ellipse class="cls-3" cx="710.39" cy="495.86" rx="41.64" ry="24.04"/></g><path class="cls-6" d="M653.31,250.33a2.51,2.51,0,0,0,0-2.7,8.15,8.15,0,0,0-6.09-4.18,2.6,2.6,0,0,0-2.47.89L633.9,260.17a2.58,2.58,0,0,0,.06,2.62A8.11,8.11,0,0,0,640,267a2.6,2.6,0,0,0,2.47-.89l10.8-15.75Z"/><path class="cls-8" d="M665.63,239.76a10.54,10.54,0,0,1-.75,9.52c-1.72,2.51-4.18,2.32-5.49-.43a10.54,10.54,0,0,1,.74-9.52C661.86,236.82,664.32,237,665.63,239.76Z"/><polygon class="cls-8" points="663.3 237.61 655.32 236.68 654.38 250.59 662.56 251.24 663.3 237.61"/><polygon class="cls-8" points="645.74 230.94 657.8 234.6 656.49 251.73 644.62 253.32 645.74 230.94"/><path class="cls-8" d="M649.78,234.56c2.18,4.58,1.63,11.69-1.25,15.87s-7,3.86-9.16-.72a17.59,17.59,0,0,1,1.24-15.87C643.49,229.65,647.59,230,649.78,234.56Z"/><path class="cls-4" d="M648.91,235.82a14.66,14.66,0,0,1-1,13.23c-2.39,3.48-5.81,3.22-7.63-.6a14.66,14.66,0,0,1,1-13.23C643.67,231.73,647.09,232,648.91,235.82Z"/><polygon class="cls-4" points="609.78 216.09 646.56 233.14 644.07 251.5 612.43 261.99 609.78 216.09"/><ellipse class="cls-9" cx="610.25" cy="239.36" rx="23.5" ry="13.57" transform="translate(323.9 829.03) rotate(-85.52)"/><path class="cls-6" d="M605.86,258.86a12.35,12.35,0,0,1-3.85-4.93c-4.09-8.57-3-22.41,2.37-30.24,3.18-4.62,7-6.05,10.26-3.82a12.35,12.35,0,0,1,3.85,4.93c4.09,8.57,3,22.41-2.37,30.24C612.94,259.66,609.11,261.09,605.86,258.86Z"/><path class="cls-7" d="M616.12,255c-3.18,4.62-7,6-10.26,3.82a12.35,12.35,0,0,1-3.85-4.93c-4.09-8.57-3-22.41,2.37-30.24,3.18-4.62,7-6.05,10.26-3.82a12.42,12.42,0,0,1,3.85,4.93,24.72,24.72,0,0,1,2,6.49,37,37,0,0,1-1.71,18.57A24.48,24.48,0,0,1,616.12,255Z"/><path class="cls-8" d="M660.53,237.28a13.41,13.41,0,0,1-.95,12.1c-2.19,3.19-5.32,2.94-7-.55a13.44,13.44,0,0,1,.95-12.1C655.74,233.54,658.86,233.78,660.53,237.28Z"/><path class="cls-8" d="M608.85,248.45a5.1,5.1,0,0,1-1.62-2.07,14.34,14.34,0,0,1,1-12.72c1.34-1.94,2.95-2.54,4.31-1.61a5.24,5.24,0,0,1,1.63,2.08,14.32,14.32,0,0,1-1,12.71C611.82,248.79,610.21,249.39,608.85,248.45Z"/><path class="cls-8" d="M618.77,249.86l-8.95-1,1.26-17.22,9.4-.34A37,37,0,0,1,618.77,249.86Z"/><path class="cls-4" d="M609.36,246.15a3.72,3.72,0,0,1-1.16-1.49,10.33,10.33,0,0,1,.71-9.15c1-1.4,2.13-1.84,3.11-1.16a3.83,3.83,0,0,1,1.17,1.49,10.38,10.38,0,0,1-.72,9.16C611.51,246.4,610.35,246.83,609.36,246.15Z"/><path class="cls-12" d="M694.22,480.46c-6.22-7.21-13.23,3-16.54,7.26-2.24,2.89-10.06,10.54-9.21,14.55.3,1.41.47,1.34,1.86,1.72a8.72,8.72,0,0,0,4.27-.16c7.34-1.77,13.16-5.92,16.49-12.27.14,1.76.17,3.53.15,5.3a.5.5,0,0,0,.78.41c.69-.44,1.36-.91,2-1.39,2.47-1.82,1.38-4.4,2.05-7.33A9.2,9.2,0,0,0,694.22,480.46Z"/><path class="cls-5" d="M673.94,422.31l-.08-3.41Q684,420,694.16,421l-.31,6.13-1,53c0,.21,0,.17,0,.08,3.23,5.61-8.55,14.09-12.5,15.4-1.94.64-5.38,1.07-5-2.24a8.18,8.18,0,0,1,2-3.64c1.22-1.65,4.7-6.76,4.43-8.78Z"/><path class="cls-12" d="M751.39,467.05c-9-3.09-9.9,9.28-10.62,14.61-.48,3.62-3.38,14.17-.61,17.21,1,1.06,1.08.92,2.47.54a8.67,8.67,0,0,0,3.6-2.29c5.45-5.23,8.38-11.75,8-18.91,1,1.46,1.93,3,2.8,4.5a.51.51,0,0,0,.89,0c.37-.73.72-1.47,1-2.22,1.21-2.81-1-4.49-1.93-7.36A9.19,9.19,0,0,0,751.39,467.05Z"/><path class="cls-5" d="M704.55,427.06l-1.79-2.9q9.32-4.19,18.57-8.45l2.83,5.45,25.91,46.29c.12.17.11.13.08.05,5.61,3.21-.28,16.48-3,19.6-1.35,1.53-4.09,3.63-5.41.57a8.26,8.26,0,0,1-.12-4.14c.22-2,.65-8.22-.6-9.82Z"/><path class="cls-6" d="M678,315.38l-3.9,6a28,28,0,0,0-4.6,15.7l1,81.11s37.15,18.13,56.38-2.44l.84-58.05s4.57-32.7-9.21-40.33Z"/><path class="cls-9" d="M659.38,303.65h0a6.66,6.66,0,0,1-9.11-2.41L631.11,268.3a6.66,6.66,0,0,1,2.4-9.11h0a6.66,6.66,0,0,1,9.11,2.41l19.17,32.94A6.66,6.66,0,0,1,659.38,303.65Z"/><path class="cls-9" d="M688.6,258.58l.61.52c3,2.57,3.12,7.29.33,10.53l-26.67,31c-2.79,3.24-7.46,3.78-10.44,1.21l-.6-.52c-3-2.57-3.13-7.29-.34-10.53l26.67-31C681,256.55,685.63,256,688.6,258.58Z"/><path class="cls-12" d="M714.56,226.07l.59,3.4-.14-.22A26.17,26.17,0,0,0,714.56,226.07Z"/><path class="cls-14" d="M702.22,255.34c-6.19,1.3-12.3,3.2-18.54,3.49a44.55,44.55,0,0,1-12.29-1.26c-3-.71-2.24-18.89-1.92-21.42.76-5.89,1.81-13.34,5-18.47,3.71-5.89,10.63-9.32,17.57-9.82a27.94,27.94,0,0,1,19.76,6.44c3.59,3,9.62,10,8.82,15.15-.63,4.1-6.73,8.69-9.42,11.61C704.54,248.33,707,251.58,702.22,255.34Z"/><path class="cls-9" d="M726.81,276.7,724,287.33l-4.29,32.29a7.68,7.68,0,0,1-3.91,4.93c-5.14,2.55-17.54,3.8-32.28-2.44-2.29-1-6.47-3.1-7-5.71l-4.6-23.93-.1-.47a16.85,16.85,0,0,1,1.56-10.88l5.38-10.34v-5.53c0-6.56,5.81-11.28,11.61-9.45l2,.7,3.22,1.11,14.16,4.94L713.9,264l8.05,2.8A8.19,8.19,0,0,1,726.81,276.7Z"/><path class="cls-4" d="M726.81,276.7,724,287.33c-1.43,1.76-2.84,3.52-4.28,5.28-3,3.72-6.13,7.54-10.31,9.49-6.94,3.24-14.91.59-22-2.4q-6.54-2.74-12.93-5.87a27.69,27.69,0,0,1-2.58-1.36l-.1-.47a16.85,16.85,0,0,1,1.56-10.88l5.38-10.34v-5.53c0-6.56,5.81-11.28,11.61-9.45l2,.7,3.22,1.11,14.16,4.94L713.9,264l8.05,2.8A8.19,8.19,0,0,1,726.81,276.7Z"/><path class="cls-5" d="M713.9,264a38.85,38.85,0,0,1-7.65,8.7,21.18,21.18,0,0,1-7.29,4.68c-2.75.91-6,.72-8.27-1.12a8.57,8.57,0,0,1-2.83-6.23,17.71,17.71,0,0,1,1.31-6.87,38.07,38.07,0,0,1,3.21-6.65l3.22,1.11,14.16,4.94Z"/><path class="cls-7" d="M667.34,288.5l.17.35a.3.3,0,0,1-.13,0C667.38,288.75,667.35,288.63,667.34,288.5Z"/><path class="cls-5" d="M640.53,269.16c-4.11,3.09-9.41,3-11.86-.29s-1.1-8.39,3-11.48,9.41-2.95,11.86.3S644.63,266.08,640.53,269.16Z"/><path class="cls-12" d="M676.05,231.33c0,11.17,8.56,20.22,19.14,20.22a18.27,18.27,0,0,0,11.24-3.86,20.55,20.55,0,0,0,7.88-16.36,21.14,21.14,0,0,0-2.72-10.42,19.73,19.73,0,0,0-7.27-7.35,18.41,18.41,0,0,0-9.13-2.44c-.4,0-.82,0-1.22,0a18.19,18.19,0,0,0-7.34,2.07A20.37,20.37,0,0,0,676.05,231.33Z"/><polygon class="cls-5" points="689.3 246.57 689.84 248.36 694.64 264.41 712.08 265.71 711.28 263.38 703.77 241.36 689.3 246.57"/><g class="cls-10"><polygon class="cls-5" points="689.3 246.57 689.84 248.36 711.28 263.38 703.77 241.36 689.3 246.57"/></g><path class="cls-5" d="M672.14,232.66c0,10.22,8.74,18.52,19.53,18.52a20.11,20.11,0,0,0,11.48-3.54,18.24,18.24,0,0,0,8-15c0-10.25-8.74-18.54-19.52-18.54-.41,0-.83,0-1.24,0C680.22,214.76,672.14,222.8,672.14,232.66Z"/><path class="cls-12" d="M705.68,227.63a6.51,6.51,0,0,0-1.62-3.25L702.67,223a1.49,1.49,0,0,0-.14-.12c-.4-4.45-3.33-9.28-7.09-11.35l6.69,2.22,1.92,2.93v-3.39a20,20,0,0,1,10,13.39h-7.11v1Z"/><path class="cls-5" d="M704.62,231.09a5.77,5.77,0,1,0,5.77-5.76A5.77,5.77,0,0,0,704.62,231.09Z"/><path class="cls-12" d="M686.57,214.22h5.27c10.07,0,11.23,10,11.23,17.59a2.08,2.08,0,0,0,4.16,0v-6.95c1.39.16,2.73.21,2.83-.1s.68-1.77,1.6-3.85a19.73,19.73,0,0,0-7.3-7.35,18.48,18.48,0,0,0-9.15-2.44c-.4,0-.83,0-1.23,0a18.47,18.47,0,0,0-7.34,2.31Z"/><path class="cls-11" d="M685,238.08a8.44,8.44,0,0,1-9.9-4.38,1.22,1.22,0,0,1,.77-1.72l13.77-3.85a1.19,1.19,0,0,1,1.53,1A8.42,8.42,0,0,1,685,238.08Z"/><path class="cls-12" d="M673,228.39a1.4,1.4,0,0,0,.73-.62,3.11,3.11,0,0,1,1.66-1.4c.64-.19,1.1,0,1.21.53.07.31.44.35.83.09a1.18,1.18,0,0,0,.57-1c-.21-1-1.08-1.35-2.28-1a5.91,5.91,0,0,0-3.13,2.63c-.23.41-.17.77.15.82A.78.78,0,0,0,673,228.39Z"/><path class="cls-12" d="M686.69,224.23a1.4,1.4,0,0,0,.73-.62,3.11,3.11,0,0,1,1.66-1.4c.64-.19,1.1,0,1.21.53.07.31.44.35.83.09a1.19,1.19,0,0,0,.58-1c-.22-1-1.09-1.35-2.29-1a5.91,5.91,0,0,0-3.13,2.63c-.23.41-.17.77.15.82A.78.78,0,0,0,686.69,224.23Z"/><path class="cls-14" d="M712.17,257a57.4,57.4,0,0,1-15.62,2.88,56.2,56.2,0,0,0,3.53-27.1c-.57-4.74-1.8-9.53-4.62-13.37a14.66,14.66,0,0,0-10.74-6.2c6.38-4.55,15.4-4.42,22.4-.83s12.3,10.36,15.6,17.65a86.26,86.26,0,0,1,5.38,17.48A54.07,54.07,0,0,1,712.17,257Z"/><path class="cls-5" d="M719.21,282.37a8.59,8.59,0,0,1-10.05-6.05c-.06-.2,0-.44-.11-.66l-16.94-78.75-1.85-8.64-2-9.55,4.43-3.38a3.15,3.15,0,0,1,4.94,1.79l27.91,94.36A8.49,8.49,0,0,1,719.21,282.37Z"/><path class="cls-5" d="M691.88,188a9.45,9.45,0,1,1,6.38-11.74A9.43,9.43,0,0,1,691.88,188Z"/><path class="cls-4" d="M726.68,271.14,703.27,192l-1.47,1.44a9.65,9.65,0,0,1-7,2.66,12.34,12.34,0,0,1-2.39-.23l-1.86-.38,17.26,80.27a1.72,1.72,0,0,1,.05.29c0,.23.09.47.13.62a9.81,9.81,0,0,0,9.41,7.13,10,10,0,0,0,2.09-.22,9.49,9.49,0,0,0,6.26-4.47A10.07,10.07,0,0,0,726.68,271.14Z"/><path class="cls-6" d="M264.35,489c6.62-7.66,14.07,3.21,17.58,7.72,2.39,3.06,10.7,11.2,9.79,15.46-.31,1.5-.5,1.43-2,1.83a9.32,9.32,0,0,1-4.54-.17c-7.8-1.88-14-6.29-17.53-13-.14,1.87-.18,3.75-.15,5.63a.54.54,0,0,1-.84.44c-.73-.48-1.44-1-2.15-1.48-2.61-1.94-1.46-4.68-2.17-7.79A9.81,9.81,0,0,1,264.35,489Z"/><path class="cls-5" d="M285.91,427.18l.08-3.61q-10.77,1.14-21.56,2.19l.32,6.51,1,56.38c0,.22,0,.18,0,.09-3.43,5.95,9.09,15,13.29,16.36,2.06.68,5.71,1.14,5.27-2.37-.18-1.48-1.22-2.68-2.11-3.87-1.3-1.75-5-7.19-4.71-9.34C277.57,488.9,285.91,427.18,285.91,427.18Z"/><path class="cls-6" d="M207.67,474.74c9.58-3.28,10.53,9.86,11.29,15.53.52,3.85,3.59,15.06.65,18.29-1,1.13-1.15,1-2.62.57a9.16,9.16,0,0,1-3.83-2.43c-5.79-5.56-8.91-12.49-8.56-20.1-1.07,1.55-2,3.15-3,4.79a.53.53,0,0,1-.94-.05c-.39-.77-.76-1.56-1.11-2.36-1.28-3,1.1-4.77,2.06-7.82A9.75,9.75,0,0,1,207.67,474.74Z"/><path class="cls-5" d="M257.45,432.24l1.9-3.08q-9.89-4.46-19.72-9l-3,5.79-27.55,49.2c-.12.19-.11.14-.07,0-6,3.42.29,17.52,3.22,20.83,1.44,1.63,4.35,3.87,5.75.62.59-1.37.29-2.93.13-4.41-.24-2.17-.69-8.73.64-10.43Z"/><path class="cls-8" d="M278.66,320.62l3.81,5.83a27.46,27.46,0,0,1,4.5,15.36l-1,88.27s-36.33,17.73-55.13-2.39L230,362s-4.47-32,9-39.44Z"/><path class="cls-5" d="M268.4,280.66a8.41,8.41,0,0,1-6.07-9.74c0-.2.15-.4.2-.61l20.2-76.15,2.23-8.34,2.45-9.24,5.36-1a3.07,3.07,0,0,1,3.51,3.75L278.7,274A8.3,8.3,0,0,1,268.4,280.66Z"/><path class="cls-5" d="M286.5,186.26a9.24,9.24,0,1,1,10.78-7.4A9.25,9.25,0,0,1,286.5,186.26Z"/><path class="cls-7" d="M279.89,274.19l14.75-79.35-1.92.6a9.45,9.45,0,0,1-7.31-.8,11.23,11.23,0,0,1-2-1.26L282,192.22l-20.6,77.61a2.82,2.82,0,0,1-.09.27c-.06.22-.13.45-.16.6a9.59,9.59,0,0,0,5,10.39,9.43,9.43,0,0,0,1.92.74,9.3,9.3,0,0,0,7.44-1.12A9.8,9.8,0,0,0,279.89,274.19Z"/><path class="cls-8" d="M268.2,226.15a28.65,28.65,0,0,0-5.61-9c-3.16-3.29-7.56-5.58-12.12-5.44s-9.11,3.08-10.42,7.45A15.23,15.23,0,0,0,226.19,228c-1.57,3.49-1.74,7.48-3.34,10.95-3.92,8.5-14.66,3.57-21.5,7.5a16.6,16.6,0,0,0-5.87,6.21,26.58,26.58,0,0,0-2,22.11c1.45,4,3.86,8.45,1.84,12.2-1.69,3.11-5.63,4-8.57,6a13.16,13.16,0,0,0-3.93,16.91c1.09,1.87,2.65,3.46,3.46,5.47,1.75,4.32-.2,9.93,2.83,13.48,2.79,3.28,8.21,2.56,11.82.19s6.27-6,9.89-8.3c7.2-4.66,19.85.3,24.39-8.51a14.23,14.23,0,0,0,1-2.45c4.95-6.26,7.06-14.88,4.57-22.51-.11-.33-.23-.67-.35-1,2.14-2.24,5.31-3.51,9.51-5.45,6.06-2.82,10.51-7.17,10-13a25.7,25.7,0,0,1,2.39-2.18c10.28-8.72,11.52-23.82,7.06-36.57C269,228,268.6,227.09,268.2,226.15Z"/><path class="cls-8" d="M276.65,237.27a23.07,23.07,0,0,1-45.17,7.54,20.45,20.45,0,0,1-.56-2.31,23.34,23.34,0,0,1-.38-5.23,23,23,0,0,1,9.63-17.71,21,21,0,0,1,3.67-2.18l0,0a24,24,0,0,1,5.49-1.72,14.71,14.71,0,0,1,1.46-.22,23,23,0,0,1,25.44,18.69c.09.46.15.9.21,1.35C276.57,236.07,276.62,236.65,276.65,237.27Z"/><path class="cls-15" d="M230.92,282.79l2.78,10.39,4.19,31.58a7.47,7.47,0,0,0,3.83,4.82c5,2.49,17.14,3.72,31.56-2.39,2.24-.95,6.33-3,6.82-5.58l4.51-23.4.09-.47a16.51,16.51,0,0,0-1.52-10.63L277.91,277v-5.4c0-6.42-5.67-11-11.35-9.24l-2,.68-3.15,1.09L247.6,269l-4,1.41-7.88,2.74A8,8,0,0,0,230.92,282.79Z"/><path class="cls-7" d="M230.92,282.79l2.78,10.39c1.39,1.72,2.77,3.44,4.17,5.16,2.94,3.64,6,7.38,10.09,9.28,6.79,3.17,14.59.59,21.48-2.34q6.39-2.68,12.64-5.74c.84-.4,1.71-.84,2.53-1.33l.09-.47a16.51,16.51,0,0,0-1.52-10.63L277.91,277v-5.4c0-6.42-5.67-11-11.35-9.24l-2,.68-3.15,1.09L247.6,269l-4,1.41-7.88,2.74A8,8,0,0,0,230.92,282.79Z"/><path class="cls-5" d="M243.55,270.36a38.09,38.09,0,0,0,7.48,8.51,20.62,20.62,0,0,0,7.13,4.57,8.59,8.59,0,0,0,8.08-1.1,8.34,8.34,0,0,0,2.78-6.08,17.28,17.28,0,0,0-1.29-6.72,36.81,36.81,0,0,0-3.14-6.51l-3.15,1.09L247.6,269Z"/><path class="cls-7" d="M289.08,294.33l-.17.34h.14C289.05,294.57,289.07,294.45,289.08,294.33Z"/><polygon class="cls-5" points="262.56 253.29 262.51 255.05 262.04 270.77 245.33 272.04 245.5 269.76 247.04 248.19 262.56 253.29"/><g class="cls-10"><polygon class="cls-5" points="262.56 253.29 262.51 255.05 245.5 269.76 247.04 248.19 262.56 253.29"/></g><path class="cls-5" d="M277.53,236.35a5.72,5.72,0,1,1-6.66-4.58A5.71,5.71,0,0,1,277.53,236.35Z"/><path class="cls-5" d="M272.15,239.55a18.56,18.56,0,0,1-26.55,17.57,17.83,17.83,0,0,1-2.6-1.52,18.46,18.46,0,0,1-7.64-11.85,18.8,18.8,0,0,1-.31-4.2,18.55,18.55,0,0,1,7.75-14.25,17.08,17.08,0,0,1,3-1.75l0,0a20.88,20.88,0,0,1,4.42-1.39c.4-.07.78-.13,1.17-.17a18.61,18.61,0,0,1,20.77,17.59Z"/><path class="cls-12" d="M248.42,232.54a3.29,3.29,0,0,0-1.53-.68l-.13,0h-.34l-.38,0H246a2.92,2.92,0,0,0-.55.14,3.14,3.14,0,0,0-1.95,1.93,2.94,2.94,0,0,0-.16.68,3,3,0,0,0,.13,1.29.84.84,0,0,0,1,.54.84.84,0,0,0,.54-1,1.17,1.17,0,0,1-.06-.58,1.7,1.7,0,0,1,.07-.34,1.51,1.51,0,0,1,.94-.92l.21-.05h0a1.89,1.89,0,0,1,.47,0,1.56,1.56,0,0,1,.68.3,1.61,1.61,0,0,1,.5.76.83.83,0,0,0,1.59-.47A3.23,3.23,0,0,0,248.42,232.54Z"/><path class="cls-12" d="M262.24,228.52a3.11,3.11,0,0,0-1.4-.65l-.25,0-.34,0-.46,0a3.3,3.3,0,0,0-2.51,2.08,2.9,2.9,0,0,0-.15.71,3.53,3.53,0,0,0,0,.65.82.82,0,0,0,1.46.45.8.8,0,0,0,.19-.61,2,2,0,0,1,0-.35,1.45,1.45,0,0,1,.06-.3,1.5,1.5,0,0,1,1-.92l.25-.07a1.83,1.83,0,0,1,.41,0h.06a1.51,1.51,0,0,1,.68.31,1.54,1.54,0,0,1,.39.49.83.83,0,0,0,1.48-.76A3.44,3.44,0,0,0,262.24,228.52Z"/><path class="cls-11" d="M257.69,246.35c5-1.31,8.36-5.29,8.18-9.32a1.31,1.31,0,0,0-1.8-1l-17,4.48c-.87.23-1.42,1-1.1,1.7C247.74,245.83,252.67,247.68,257.69,246.35Z"/><path class="cls-5" d="M240.68,246.36a5.71,5.71,0,1,1-6.66-4.57A5.73,5.73,0,0,1,240.68,246.36Z"/><path class="cls-7" d="M228.64,310.14l-4.31-9.05,3.53-1.67a1.66,1.66,0,0,1,1.53.07l28.9,16.68a1.66,1.66,0,0,1,.83,1.43V362a1.65,1.65,0,0,1-.94,1.49l-1.65.77a1.9,1.9,0,0,1-2.53-.9l-2.15-4.52-23.2-13.39Z"/><path class="cls-8" d="M224.33,347.5l27.93,16.12a1.7,1.7,0,0,0,2.55-1.47V321.2a4.36,4.36,0,0,0-2.18-3.78l-28.3-16.33Z"/><path class="cls-7" d="M215.2,334.6a9.5,9.5,0,0,0,8.55-5.34l19.81-40.74a9.5,9.5,0,0,0-17.08-8.31L206.67,321a9.49,9.49,0,0,0,8.53,13.64Z"/><path class="cls-5" d="M256.54,351.24a7.69,7.69,0,0,0,0-15.38c-30.68,0-35-11.51-35.06-11.63a7.69,7.69,0,0,0-15.18,2.5C206.72,329.23,211.63,351.24,256.54,351.24Z"/><path class="cls-5" d="M251,340.56h0a3.16,3.16,0,0,0,4.3-.78l4.31-5.9a3,3,0,0,0-.65-4.22h0a3.16,3.16,0,0,0-4.3.78l-4.31,5.9A3,3,0,0,0,251,340.56Z"/><path class="cls-16" d="M239,27.16a8.76,8.76,0,0,0-2,1.73c-.8.87-1,1-1.49,1s-.69-.12-1.49-1a6.3,6.3,0,0,0-4.93-2.51c-2.63,0-4,2-4.93,3s-1,1.45-1.49,1.45h0l2,3.89a7.62,7.62,0,0,0,3-2.41c.8-.87,1-1.11,1.49-1.11s.69.07,1.49.94a6.12,6.12,0,0,0,9.87,0,6.37,6.37,0,0,1,.73-.74Z"/><path class="cls-14" d="M223.1,74a8.69,8.69,0,0,0-2,1.73c-.8.87-1,1-1.49,1s-.69-.12-1.49-1a6.32,6.32,0,0,0-4.94-2.51,6.14,6.14,0,0,0-4.93,2.06c-.8.88-1,.55-1.49.55h0l2,4.79a7.09,7.09,0,0,0,3-2c.8-.87,1-.88,1.49-.88s.69.17,1.49,1.05a6.09,6.09,0,0,0,9.87,0,9.73,9.73,0,0,1,.73-.73Z"/><path class="cls-4" d="M302,44a8.55,8.55,0,0,0-2,1.73c-.8.87-1,1-1.49,1s-.69-.12-1.49-1a6.09,6.09,0,0,0-9.87,0c-.8.88-1,1-1.49,1h0l2,4.32a7.26,7.26,0,0,0,3-2.19c.81-.88,1-1,1.49-1s.69.12,1.49,1a6.11,6.11,0,0,0,9.87,0,9.73,9.73,0,0,1,.73-.73Z"/><path class="cls-14" d="M147.33,69.17a8.55,8.55,0,0,0-1.82-1.9c-.91-.76-1-.94-1.07-1.44s.09-.7.93-1.54a6.27,6.27,0,0,0-.28-9.87c-.91-.75-.83-.94-.86-1.45v0l-4.45,2.22A7.28,7.28,0,0,0,142,58c.91.76,1,.94,1,1.44s-.12.7-1,1.54a6.1,6.1,0,0,0,.46,9.86,9.61,9.61,0,0,1,.77.69Z"/><path class="cls-16" d="M144.12,103.82a8.74,8.74,0,0,0-.06,2.63c.11,1.18.08,1.4-.26,1.77s-.56.43-1.74.44a6.32,6.32,0,0,0-5.18,2c-1.77,1.95-1.36,4.19-1.24,5.54.11,1.18.29,1.59,0,2l0,0,4.35,1.24a7.43,7.43,0,0,0,.26-3.75c-.1-1.18-.13-1.45.22-1.83s.52-.45,1.71-.45a6.11,6.11,0,0,0,6.61-7.33,7.17,7.17,0,0,1-.05-1Z"/><path class="cls-14" d="M182.05,155.08a9.08,9.08,0,0,0-.06,2.63c.11,1.18.08,1.4-.26,1.77s-.56.43-1.74.44a6.29,6.29,0,0,0-5.18,2,6.21,6.21,0,0,0-1.61,5.2c.11,1.18-.08,1.25-.42,1.63l0,0,4.71,1.58a7.06,7.06,0,0,0,.46-3.59c-.11-1.18,0-1.36.3-1.73s.58-.41,1.76-.42a6.1,6.1,0,0,0,6.65-7.29,9,9,0,0,1,0-1Z"/><path class="cls-4" d="M186.14,99.55a8.43,8.43,0,0,0-.06,2.63c.11,1.18.07,1.39-.27,1.77s-.55.43-1.74.43a6.33,6.33,0,0,0-5.17,2,6.25,6.25,0,0,0-1.62,5.2c.11,1.18-.07,1.26-.42,1.63v0l4.71,1.58a7.15,7.15,0,0,0,.45-3.59c-.1-1.18,0-1.36.31-1.73s.57-.41,1.76-.42a6.11,6.11,0,0,0,6.65-7.29,5.94,5.94,0,0,1,0-1Z"/><path class="cls-16" d="M279.73,104.85a8.63,8.63,0,0,0-2.62.25c-1.16.25-1.38.24-1.79-.06s-.49-.49-.64-1.67a6.28,6.28,0,0,0-2.56-4.91c-2.14-1.53-4.32-.86-5.64-.58-1.16.25-1.55.48-2,.19l0,0-.72,4.46a7.51,7.51,0,0,0,3.76-.18c1.16-.24,1.42-.3,1.84,0s.51.47.66,1.64a6.25,6.25,0,0,0,2.57,4.89,6.33,6.33,0,0,0,5.48.82,8.94,8.94,0,0,1,1-.18Z"/><path class="cls-4" d="M229.2,133.78a9,9,0,0,0,2.57.55c1.18.11,1.39.18,1.7.59s.31.62.1,1.79a6.27,6.27,0,0,0,5.76,8c1.18.11,1.22.31,1.53.72v0l2.44-4.34a7.26,7.26,0,0,0-3.44-1.12c-1.18-.11-1.34-.21-1.65-.62s-.3-.64-.08-1.8a6.1,6.1,0,0,0-5.92-7.9,7.42,7.42,0,0,1-1-.15Z"/><path class="cls-4" d="M626.2,30.78a9,9,0,0,0,2.57.55c1.18.11,1.39.18,1.7.59s.31.62.1,1.79a6.27,6.27,0,0,0,5.76,8c1.18.11,1.22.31,1.53.72v0l2.44-4.34A7.26,7.26,0,0,0,636.87,37c-1.18-.11-1.34-.21-1.65-.62s-.3-.64-.08-1.8a6.1,6.1,0,0,0-5.92-7.9,7.42,7.42,0,0,1-1-.15Z"/><path class="cls-16" d="M387.7,68.73a8.87,8.87,0,0,0,.28-2.62c0-1.19,0-1.4.41-1.75s.58-.38,1.77-.29a6.29,6.29,0,0,0,5.32-1.53c1.92-1.79,1.7-4.06,1.69-5.41,0-1.19-.16-1.61.21-2l0,0-4.22-1.6a7.41,7.41,0,0,0-.58,3.73c0,1.18,0,1.45-.36,1.79s-.56.41-1.74.32a6.11,6.11,0,0,0-7.2,6.75,9.49,9.49,0,0,1,0,1Z"/><path class="cls-16" d="M814.7,49.73a8.87,8.87,0,0,0,.28-2.62c0-1.19,0-1.4.41-1.75s.58-.38,1.77-.29a6.29,6.29,0,0,0,5.32-1.53c1.92-1.79,1.7-4.06,1.69-5.41,0-1.19-.16-1.61.21-2l0,0-4.22-1.6a7.41,7.41,0,0,0-.58,3.73c0,1.18,0,1.45-.36,1.79s-.56.41-1.74.32a6.11,6.11,0,0,0-7.2,6.75,9.49,9.49,0,0,1,0,1Z"/><path class="cls-16" d="M788.7,172.73a8.87,8.87,0,0,0,.28-2.62c0-1.19,0-1.4.41-1.75s.58-.38,1.77-.29a6.29,6.29,0,0,0,5.32-1.53c1.92-1.79,1.7-4.06,1.69-5.41,0-1.19-.16-1.61.21-2l0,0-4.22-1.6a7.41,7.41,0,0,0-.58,3.73c0,1.18,0,1.45-.36,1.79s-.56.41-1.74.32a6.11,6.11,0,0,0-7.2,6.75,9.49,9.49,0,0,1,0,1Z"/><path class="cls-14" d="M308.78,77a8.79,8.79,0,0,0-2,1.73c-.8.87-1,1-1.49,1s-.69-.13-1.49-1a6.32,6.32,0,0,0-4.94-2.51,6.15,6.15,0,0,0-4.93,2.07c-.8.87-1,.55-1.49.55h0l2,4.79a7.09,7.09,0,0,0,3-2c.8-.88,1-.89,1.49-.89s.69.18,1.49,1a6.09,6.09,0,0,0,9.87,0,9.15,9.15,0,0,1,.73-.72Z"/><path class="cls-4" d="M343.66,14a8.79,8.79,0,0,0-2,1.73c-.8.87-1,1-1.49,1s-.69-.13-1.49-1a6.09,6.09,0,0,0-9.87,0c-.8.87-1,1-1.49,1h0l2,4.32a7.29,7.29,0,0,0,3-2.2c.8-.87,1-1,1.48-1s.69.12,1.49,1a6.11,6.11,0,0,0,9.87,0,9.73,9.73,0,0,1,.73-.73Z"/><path class="cls-4" d="M343.14,123.55a8.43,8.43,0,0,0-.06,2.63c.11,1.18.07,1.39-.27,1.77s-.55.43-1.74.43a6.33,6.33,0,0,0-5.17,2,6.25,6.25,0,0,0-1.62,5.2c.11,1.18-.07,1.26-.42,1.63v0l4.71,1.58a7.15,7.15,0,0,0,.45-3.59c-.1-1.18,0-1.36.31-1.73s.57-.41,1.76-.42a6.11,6.11,0,0,0,6.65-7.29,5.94,5.94,0,0,1-.05-1Z"/><path class="cls-14" d="M890.1,58a8.69,8.69,0,0,0-2,1.73c-.8.87-1,1-1.49,1s-.69-.12-1.49-1a6.32,6.32,0,0,0-4.94-2.51,6.14,6.14,0,0,0-4.93,2.06c-.8.88-1,.55-1.49.55h0l2,4.79a7.09,7.09,0,0,0,3-2c.8-.87,1-.88,1.49-.88s.69.17,1.49,1a6.09,6.09,0,0,0,9.87,0,9.73,9.73,0,0,1,.73-.73Z"/><path class="cls-16" d="M862.12,93.82a8.74,8.74,0,0,0-.06,2.63c.11,1.18.08,1.4-.26,1.77s-.56.43-1.74.44a6.32,6.32,0,0,0-5.18,2c-1.77,1.95-1.36,4.19-1.24,5.54.11,1.18.29,1.59,0,2l0,0,4.35,1.24a7.43,7.43,0,0,0,.26-3.75c-.1-1.18-.13-1.45.22-1.83s.52-.45,1.71-.45A6.11,6.11,0,0,0,866.72,96a7.17,7.17,0,0,1-.05-1Z"/><path class="cls-4" d="M903.14,99.55a8.43,8.43,0,0,0-.06,2.63c.11,1.18.07,1.39-.27,1.77s-.55.43-1.74.43a6.33,6.33,0,0,0-5.17,2,6.25,6.25,0,0,0-1.62,5.2c.11,1.18-.07,1.26-.42,1.63v0l4.71,1.58a7.15,7.15,0,0,0,.45-3.59c-.1-1.18,0-1.36.31-1.73s.57-.41,1.76-.42a6.11,6.11,0,0,0,6.65-7.29,5.94,5.94,0,0,1-.05-1Z"/><path class="cls-14" d="M411.6,11.72A8.63,8.63,0,0,0,409,12c-1.16.25-1.37.24-1.79-.05s-.49-.5-.63-1.68A6.34,6.34,0,0,0,404,5.33a6.25,6.25,0,0,0-5.35-1c-1.16.25-1.26.07-1.67-.22l0,0-1,4.87a7.13,7.13,0,0,0,3.62,0c1.16-.25,1.35-.2,1.76.1s.48.52.62,1.69a6.32,6.32,0,0,0,2.56,4.92,6.31,6.31,0,0,0,5.47.83,6.79,6.79,0,0,1,1-.17Z"/><path class="cls-4" d="M817.65,84.31a8.72,8.72,0,0,0-2.6.4c-1.14.31-1.36.32-1.79.05s-.52-.47-.73-1.64a6.3,6.3,0,0,0-2.83-4.76,6.24,6.24,0,0,0-5.4-.69c-1.14.31-1.25.14-1.68-.13h0l-.74,4.91a7.13,7.13,0,0,0,3.61-.17c1.14-.31,1.33-.27,1.76,0s.51.49.72,1.66a6.1,6.1,0,0,0,8.33,5.28,8.42,8.42,0,0,1,1-.22Z"/><path class="cls-16" d="M750.7,90.15a9,9,0,0,0-2,1.73c-.8.88-1,1-1.49,1s-.68-.12-1.49-1a6.3,6.3,0,0,0-4.93-2.51c-2.63,0-4,2-4.93,3s-1,1.45-1.49,1.45h0l2,3.89a7.62,7.62,0,0,0,3-2.41c.8-.88,1-1.11,1.49-1.11s.69.06,1.49.94a6.11,6.11,0,0,0,9.87,0,8.57,8.57,0,0,1,.73-.74Z"/><path class="cls-14" d="M766.78,139a8.79,8.79,0,0,0-2,1.73c-.8.87-1,1-1.49,1s-.69-.13-1.49-1a6.32,6.32,0,0,0-4.94-2.51,6.15,6.15,0,0,0-4.93,2.07c-.8.87-1,.55-1.49.55h0l2,4.79a7.09,7.09,0,0,0,3-2c.8-.88,1-.89,1.49-.89s.69.18,1.49,1.05a6.09,6.09,0,0,0,9.87,0,9.15,9.15,0,0,1,.73-.72Z"/><path class="cls-4" d="M792.66,125a8.79,8.79,0,0,0-2,1.73c-.8.87-1,1-1.49,1s-.69-.13-1.49-1a6.09,6.09,0,0,0-9.87,0c-.8.87-1,1-1.49,1h0l2,4.32a7.29,7.29,0,0,0,3-2.2c.8-.87,1-1,1.48-1s.69.12,1.49,1a6.11,6.11,0,0,0,9.87,0,9.73,9.73,0,0,1,.73-.73Z"/><path class="cls-4" d="M746.84,12.15a8.52,8.52,0,0,0-1.37,2.26c-.5,1.07-.63,1.24-1.12,1.4s-.69.09-1.72-.5a6.32,6.32,0,0,0-5.46-.89,6.26,6.26,0,0,0-4,3.7c-.5,1.07-.7,1.05-1.18,1.2h0l3.29,3.73a7.16,7.16,0,0,0,2.19-2.88c.5-1.08.65-1.2,1.13-1.35s.7-.07,1.73.51a6.11,6.11,0,0,0,9.41-3,7.36,7.36,0,0,1,.47-.92Z"/><path class="cls-4" d="M411.35,85.06a8.7,8.7,0,0,0,2.47-.91c1.06-.54,1.27-.58,1.75-.4s.6.35,1,1.45a6.26,6.26,0,0,0,9.16,3.69c1.05-.53,1.19-.38,1.67-.2h0l-.25-5a7.28,7.28,0,0,0-3.51.89c-1.06.54-1.25.54-1.73.36s-.59-.38-1-1.48A6.1,6.1,0,0,0,411.72,80a6.67,6.67,0,0,1-.94.42Z"/><path class="cls-16" d="M690.7,11.15a9,9,0,0,0-2,1.73c-.8.88-1,1-1.49,1s-.68-.12-1.49-1a6.3,6.3,0,0,0-4.93-2.51c-2.63,0-4,2-4.93,3s-1,1.45-1.49,1.45h0l2,3.89a7.62,7.62,0,0,0,3-2.41c.8-.88,1-1.11,1.49-1.11s.69.06,1.49.94a6.11,6.11,0,0,0,9.87-.05,8.57,8.57,0,0,1,.73-.74Z"/><path class="cls-14" d="M696.78,43a8.79,8.79,0,0,0-2,1.73c-.8.87-1,1-1.49,1s-.69-.13-1.49-1a6.32,6.32,0,0,0-4.94-2.51,6.15,6.15,0,0,0-4.93,2.07c-.8.87-1,.55-1.49.55h0l2,4.79a7.09,7.09,0,0,0,3-2c.8-.88,1-.89,1.49-.89s.69.18,1.49,1.05a6.09,6.09,0,0,0,9.87,0,9.15,9.15,0,0,1,.73-.72Z"/><path class="cls-4" d="M764.66,53a8.79,8.79,0,0,0-2,1.73c-.8.87-1,1-1.49,1s-.69-.13-1.49-1a6.09,6.09,0,0,0-9.87,0c-.8.87-1,1-1.49,1h0l2,4.32a7.29,7.29,0,0,0,3-2.2c.8-.87,1-1,1.48-1s.69.12,1.49,1a6.11,6.11,0,0,0,9.87,0,9.73,9.73,0,0,1,.73-.73Z"/><path class="cls-16" d="M635.12,72.82a8.74,8.74,0,0,0-.06,2.63c.11,1.18.08,1.4-.26,1.77s-.56.43-1.74.44a6.32,6.32,0,0,0-5.18,2c-1.77,1.95-1.36,4.19-1.24,5.54.11,1.18.29,1.59,0,2l0,0,4.35,1.24a7.43,7.43,0,0,0,.26-3.75c-.1-1.18-.13-1.45.22-1.83s.52-.45,1.71-.45A6.11,6.11,0,0,0,639.72,75a7.17,7.17,0,0,1-.05-1Z"/><path class="cls-14" d="M665.05,128.08a9.08,9.08,0,0,0-.06,2.63c.11,1.18.08,1.4-.26,1.77s-.56.43-1.74.44a6.29,6.29,0,0,0-5.18,2,6.21,6.21,0,0,0-1.61,5.2c.11,1.18-.08,1.25-.42,1.63l0,0,4.71,1.58a7.06,7.06,0,0,0,.46-3.59c-.11-1.18,0-1.36.3-1.73s.58-.41,1.76-.42a6.1,6.1,0,0,0,6.65-7.29,9,9,0,0,1,0-1Z"/><path class="cls-4" d="M677.36,88.73a8.67,8.67,0,0,0-1.73,2c-.66,1-.83,1.12-1.33,1.19s-.7,0-1.62-.77a6.26,6.26,0,0,0-9.79,1.2c-.67,1-.86.92-1.37,1h0l2.63,4.22a7.21,7.21,0,0,0,2.63-2.48c.67-1,.84-1.07,1.34-1.15s.7,0,1.62.8a6.1,6.1,0,0,0,9.77-1.39,7.6,7.6,0,0,1,.62-.82Z"/><path class="cls-6" d="M541.86,454.61a5.13,5.13,0,0,0-4.51,3.37,15.29,15.29,0,0,0-.79,5.88c0,1.74.08,3.69,1.32,4.91a6.69,6.69,0,0,0,3,1.41,35.88,35.88,0,0,0,6.21,1.29c2.39.2,4.81-.07,7.18.29,1.51.23,3,.71,4.45,1.06a25.28,25.28,0,0,0,12.81-.33,4.82,4.82,0,0,0,2.5-1.37,3.63,3.63,0,0,0-.36-4.41,10.55,10.55,0,0,0-4-2.6l-13.1-6c-4.28-2-8.72-4-13.43-4.08-1.5,0-3.49.65-3.35,2.15Z"/><rect class="cls-7" x="540.34" y="442.61" width="10.93" height="19.37" rx="5.25" transform="translate(38.36 -42.65) rotate(4.64)"/><path class="cls-6" d="M524.63,478.42c.83,1.51,1.69,3,2.5,4.51a36.92,36.92,0,0,1,2.24,4.71c.88,2.42,2.54,7.13.45,9.33-3.14,3.31-8.27.47-10.82-1.86a102.29,102.29,0,0,1-10.57-11.26,13.88,13.88,0,0,1-3.18-5.74c-1.31-6.64,2.58-16.06,10.74-13.86,3,.81,4.25,2.9,5,5.61A38.08,38.08,0,0,0,524.63,478.42Z"/><rect class="cls-7" x="508.71" y="455.86" width="10.93" height="19.37" rx="5.25"/><path class="cls-8" d="M540.9,290.81l-27.61,9.57-10.68,21.1,2.95,70.9v66.76a6.59,6.59,0,0,0,6.6,6.6h4.54a6.61,6.61,0,0,0,6.58-6.05l7-80.2,2.3-31.36,5.74-2.33,2.63,37.59-3.1,62a6.42,6.42,0,0,0,6.89,6.71l3.2-.23a6.43,6.43,0,0,0,5.89-5.48l10.42-68.85V303.15Z"/><path class="cls-9" d="M516.31,454.72h-4.54c-2.08,0-4-1.57-5.55-3.4a2,2,0,0,0-3.61,1.29v5.06a9.17,9.17,0,0,0,9.16,9.17h4.54a9.16,9.16,0,0,0,9.13-8.4v-6.28a1.05,1.05,0,0,0-2-.55C522.4,453.27,520.58,454.76,516.31,454.72Z"/><path class="cls-9" d="M548.71,443.44h-4.1c-1.88,0-5.58-.83-6.28-3.16-.51-1.67-2-.57-2,1.2v4.7a8.38,8.38,0,0,0,8.26,8.5h4.1a8.36,8.36,0,0,0,8.23-7.79v-5.82a1,1,0,0,0-1.76-.52C554.2,442.09,552.55,443.47,548.71,443.44Z"/><path class="cls-4" d="M564.79,150.46c.65,2,4.67,2.51,9,1.12s7.27-4.16,6.62-6.17-4.67-2.51-9-1.11S564.14,148.45,564.79,150.46Z"/><path class="cls-5" d="M567.52,142a9.73,9.73,0,1,1,5.74-12.5A9.73,9.73,0,0,1,567.52,142Z"/><path class="cls-5" d="M563.11,132.78l4.32-3.77a3.24,3.24,0,0,1,5.2,1.5l5.9,16-.45.5a10,10,0,0,1-7,3.22,12.6,12.6,0,0,1-2.47-.08L568,150l-2.15-7.58Z"/><path class="cls-7" d="M545,214.43l33.65-27.32a3.79,3.79,0,0,0,1.18-3.93l-13.18-33.34L568,150l.55.08a12.6,12.6,0,0,0,2.47.08,9.91,9.91,0,0,0,7-3.21l.45-.52,1-1.07s21.17,43.37,21,46a10.18,10.18,0,0,1-3.53,7l-10.25,7.53-28.34,24A10.24,10.24,0,0,1,545,214.43Z"/><path class="cls-7" d="M562.18,228.25l4.31,64.95a18.12,18.12,0,0,1-10.18,17.5l-13.38,6.49a42.11,42.11,0,0,1-26.41,6,41.53,41.53,0,0,1-9.5-2.13l-6.78-2.41,2.51-85.53a14.56,14.56,0,0,1,4-9.47,13.56,13.56,0,0,1,3.17-2.58l6.06-3.82,1.69-1.07c4.58-3.2,13.46-6.51,21.45-7.47a34.53,34.53,0,0,1,4.54-.31,16.52,16.52,0,0,1,8.13,1.72A21,21,0,0,1,562.18,228.25Z"/><g class="cls-17"><path class="cls-18" d="M516.52,323.21a41.53,41.53,0,0,1-9.5-2.13l-6.78-2.41,2.51-85.53a14.56,14.56,0,0,1,4-9.47,31.77,31.77,0,0,1,4,.66,4.08,4.08,0,0,1,1.1.44,10.34,10.34,0,0,1,4.89,2.59c3,3.13,2.27,8.23.79,12.32s-3.44,8.44-2.31,12.64c.83,3,3.14,5.44,3.76,8.5,1.27,6.48-5.58,22.66-4.93,29.23.38,3.76,3.1,6.79,4.82,10.13C522.48,307.44,521,316.33,516.52,323.21Z"/></g><ellipse class="cls-4" cx="532.47" cy="216.18" rx="10.74" ry="7.7"/><path class="cls-5" d="M541.05,197.62V215.7H541c-.59,2.81-4.1,4.92-8.48,4.92s-7.88-2.11-8.47-4.92h-.1V197.62a7.73,7.73,0,0,1,2.52-5.68,8.71,8.71,0,0,1,4.92-2.29q.67-.06,1.41-.06a9,9,0,0,1,2.93.55,8.41,8.41,0,0,1,3,2A7.73,7.73,0,0,1,541.05,197.62Z"/><g class="cls-10"><path class="cls-5" d="M541.05,197.62v3.76L523.9,212.23V197.62a7.73,7.73,0,0,1,2.52-5.68,8.71,8.71,0,0,1,4.92-2.29q.67-.06,1.41-.06a9,9,0,0,1,2.93.55,8.41,8.41,0,0,1,3,2A7.73,7.73,0,0,1,541.05,197.62Z"/></g><path class="cls-12" d="M537.25,165.81c1.25.32,2.75.59,3.69-.29,1.21-1.13.54-3.14-.34-4.54s-1.94-3-1.27-4.56c.54-1.22,2-1.73,3.34-1.9a13.74,13.74,0,0,1,9.27,2.18c4.36,2.91,6.65,8,8.37,13,.22.61.4,1.37,0,1.85a1.79,1.79,0,0,1-1.11.45,28,28,0,0,1-19.24-4.25Z"/><path class="cls-12" d="M555.15,181.62c0,12-8.93,21.75-20,21.75a18.67,18.67,0,0,1-11.73-4.16,22.34,22.34,0,0,1-8.23-17.59,23.62,23.62,0,0,1,2.85-11.22,20.87,20.87,0,0,1,7.58-7.9,18.74,18.74,0,0,1,9.53-2.63c.42,0,.85,0,1.27,0a18.48,18.48,0,0,1,7.66,2.22A22,22,0,0,1,555.15,181.62Z"/><path class="cls-12" d="M563.69,183.19c0,12-8.93,21.75-20,21.75A18.69,18.69,0,0,1,532,200.78a22.33,22.33,0,0,1-8.23-17.59A23.62,23.62,0,0,1,526.61,172a20.87,20.87,0,0,1,7.58-7.9,18.77,18.77,0,0,1,9.53-2.63c.42,0,.86,0,1.27.05a18.48,18.48,0,0,1,7.66,2.22A22,22,0,0,1,563.69,183.19Z"/><path class="cls-5" d="M562.24,186.83a20.56,20.56,0,0,1-20.8,20.33,20.94,20.94,0,0,1-12.22-3.88,20.18,20.18,0,0,1-8.56-16.45,20.57,20.57,0,0,1,20.78-20.35c.44,0,.89,0,1.32.05A20.52,20.52,0,0,1,562.24,186.83Z"/><path class="cls-12" d="M527.18,181.43a7,7,0,0,1,1.74-3.51l1.5-1.49.15-.13c.43-4.78,3.58-10,7.63-12.21l-7.2,2.39-2.06,3.16V166a21.45,21.45,0,0,0-10.74,14.4h7.65v1Z"/><path class="cls-5" d="M528.32,185.15a6.21,6.21,0,1,1-6.2-6.2A6.2,6.2,0,0,1,528.32,185.15Z"/><path class="cls-12" d="M547.74,167h-5.67C531.24,167,530,177.73,530,185.92a2.24,2.24,0,0,1-4.48,0v-7.48c-1.49.17-2.93.23-3-.11s-.74-1.9-1.73-4.14a21.38,21.38,0,0,1,7.86-7.91,20,20,0,0,1,9.85-2.62c.43,0,.89,0,1.32,0a20.14,20.14,0,0,1,7.9,2.48Z"/><path class="cls-11" d="M547,192.67A9.09,9.09,0,0,0,557.65,188a1.3,1.3,0,0,0-.82-1.84L542,182a1.29,1.29,0,0,0-1.65,1A9.08,9.08,0,0,0,547,192.67Z"/><path class="cls-12" d="M560,182.24a1.49,1.49,0,0,1-.79-.67,3.32,3.32,0,0,0-1.79-1.5c-.69-.21-1.18,0-1.3.57-.07.33-.47.38-.89.1a1.3,1.3,0,0,1-.62-1.12c.23-1.05,1.17-1.45,2.46-1.06a6.29,6.29,0,0,1,3.36,2.82c.26.44.19.83-.15.88A.54.54,0,0,1,560,182.24Z"/><path class="cls-12" d="M545.18,177.76a1.51,1.51,0,0,1-.79-.66,3.26,3.26,0,0,0-1.78-1.5c-.69-.21-1.18,0-1.3.56-.08.34-.47.38-.89.1a1.25,1.25,0,0,1-.62-1.12c.23-1,1.17-1.45,2.45-1.06a6.25,6.25,0,0,1,3.37,2.83c.25.43.18.83-.16.88A.71.71,0,0,1,545.18,177.76Z"/><path class="cls-4" d="M499.22,157.88c-.65,2-4.67,2.51-9,1.12s-7.27-4.15-6.62-6.17,4.67-2.51,9-1.11S499.87,155.87,499.22,157.88Z"/><path class="cls-5" d="M496.5,149.44a9.73,9.73,0,1,0-5.75-12.5A9.73,9.73,0,0,0,496.5,149.44Z"/><path class="cls-5" d="M500.9,140.21l-4.32-3.78a3.24,3.24,0,0,0-5.2,1.51l-5.9,15.95.45.5a9.93,9.93,0,0,0,7,3.22,11.87,11.87,0,0,0,2.47-.08l.55-.07,2.16-7.58Z"/><path class="cls-7" d="M516.46,224.42l-31.1-28.61a3.81,3.81,0,0,1-1.17-3.93l13.18-34.62-1.38.2-.55.07a11.9,11.9,0,0,1-2.47.08,10,10,0,0,1-7-3.21l-.44-.51-1-1.08S460.78,197.46,461,200.06a10.27,10.27,0,0,0,3.53,7l10.25,8.82,28.35,24a10.24,10.24,0,0,0,13.36-15.51Z"/><path class="cls-19" d="M558.68,60.57l-3.38-2c13.13-9.06,23.59-27.16,24.83-43l3.37,2C582.26,33.41,571.81,51.52,558.68,60.57Z"/><polygon class="cls-14" points="558.58 25.63 555.2 23.67 585.74 6.04 589.11 8 558.58 25.63"/><path class="cls-20" d="M589.11,8v3.18c.06,20-13.36,44.23-30.42,55.7l0-6.31c13.13-9,23.58-27.16,24.82-43L558.6,31.94l0-6.31Z"/><ellipse class="cls-21" cx="531.56" cy="136.88" rx="32.01" ry="18.48"/><polygon class="cls-21" points="563.52 127.17 563.61 137.65 499.51 138.09 499.51 127.55 563.52 127.17"/><ellipse class="cls-14" cx="531.56" cy="127.55" rx="32.01" ry="18.48"/><ellipse class="cls-22" cx="531.56" cy="120.73" rx="21.3" ry="12.3"/><path class="cls-19" d="M520.79,94.12l.12,0,.25,0a47.7,47.7,0,0,0,8.69,1.08c.7,0,1.35,0,1.95,0h.74c.79,0,1.46,0,2-.07l1.11-.09,1.17-.11c.93-.09,2-.23,3.21-.42l.52-.08c.74-.13,1.51-.28,2.32-.46v.65l0,5.84v5.87l0,10a4.58,4.58,0,0,1-.1.63,3.15,3.15,0,0,1-.09.52,3.9,3.9,0,0,1-.34.72,3,3,0,0,1-.24.47,6.22,6.22,0,0,1-.64.75c-.12.12-.2.26-.33.38a9.09,9.09,0,0,1-1.39,1c-4.29,2.58-11.4,2.65-15.87.16a9.82,9.82,0,0,1-1.5-1c-.14-.13-.23-.26-.36-.39a7.11,7.11,0,0,1-.71-.75c-.11-.16-.17-.33-.27-.49a5.1,5.1,0,0,1-.38-.73,5.17,5.17,0,0,1-.11-.54,4.51,4.51,0,0,1-.12-.72s0,0,0-.07h0l0-10V94Z"/><path class="cls-22" d="M489.38,24.32l4.11,46.28a38.14,38.14,0,0,0,12.18,25.1c.32.3.65.59,1,.88a38.1,38.1,0,0,0,25,9.29c.9,0,1.79,0,2.68-.09a38.28,38.28,0,0,0,35.49-35.34l3.94-46.82Z"/><path class="cls-14" d="M560.58,70.44l3.94-46.75,9.23-.07-4,46.82a38.26,38.26,0,0,1-38.16,35.43h0a37.05,37.05,0,0,1-4.61-.29A38.25,38.25,0,0,0,560.58,70.44Z"/><path class="cls-21" d="M492.77,27.62l4.11,46.27a38.1,38.1,0,0,0,9.78,22.69,38.1,38.1,0,0,0,25,9.29c.9,0,1.79,0,2.68-.09a38.27,38.27,0,0,1-19.94-30.66l-4.12-46.28Z"/><ellipse class="cls-14" cx="531.56" cy="24.36" rx="42.18" ry="24.36"/><path class="cls-19" d="M497.63,24.36c0,2.35,1.2,4.79,3.41,7.05a24.22,24.22,0,0,0,5.25,4c6.56,3.78,15.77,6,25.27,6s18.72-2.17,25.27-6a24.29,24.29,0,0,0,5.26-4c2.21-2.26,3.4-4.7,3.4-7,0-3.84-3.15-7.86-8.66-11-6.55-3.78-15.76-5.95-25.27-5.95s-18.71,2.17-25.27,6C500.79,16.5,497.63,20.52,497.63,24.36Z"/><path class="cls-23" d="M501,31.41a24.22,24.22,0,0,0,5.25,4c6.56,3.78,15.77,6,25.27,6s18.72-2.17,25.27-6a24.29,24.29,0,0,0,5.26-4,24.29,24.29,0,0,0-5.26-4c-6.55-3.78-15.76-6-25.27-6s-18.71,2.18-25.27,6A24.22,24.22,0,0,0,501,31.41Z"/><path class="cls-19" d="M493.79,88.82c.27.13.53.27.81.38s.67.22,1,.33.56.19.85.27.73.12,1.09.18.59.12.9.16.77,0,1.15,0,.62,0,.94,0,.83-.06,1.25-.1.63,0,.95-.08.92-.18,1.38-.27c.3-.07.6-.11.9-.18.53-.13,1.07-.32,1.61-.49.25-.08.5-.14.76-.24.8-.28,1.62-.62,2.44-1l-3.37-2c-5.77,2.67-11,3-15.24,1.34a12,12,0,0,0,1.65,1.12A9.86,9.86,0,0,0,493.79,88.82Z"/><path class="cls-19" d="M488.56,94.76c-.39-.24-.76-.51-1.13-.78s-.63-.47-.93-.72-.68-.64-1-1-.56-.56-.83-.87-.59-.77-.88-1.17-.49-.65-.71-1-.51-.91-.76-1.38-.4-.73-.58-1.12-.42-1-.62-1.59-.32-.79-.45-1.22c-.19-.59-.33-1.23-.48-1.86-.11-.42-.23-.82-.31-1.25-.15-.73-.24-1.5-.34-2.27,0-.39-.12-.75-.16-1.14-.11-1.19-.17-2.42-.17-3.7V70.53l-3.38-2v3.17c0,10.47,3.74,17.84,9.71,21.3l3.37,2C488.79,94.93,488.68,94.83,488.56,94.76Z"/><polygon class="cls-14" points="509.73 52.9 506.36 50.94 475.82 68.56 479.2 70.53 509.73 52.9"/><path class="cls-22" d="M509.85,94.15l0-6.29c-.82.38-1.64.72-2.44,1-.26.1-.51.16-.76.24-.54.17-1.08.36-1.61.49-.3.07-.6.11-.9.18-.46.09-.93.2-1.38.27s-.63,0-.95.08-.84.09-1.25.1-.62,0-.94,0-.78,0-1.15,0-.6-.11-.9-.16-.73-.1-1.09-.18-.57-.18-.85-.27-.69-.2-1-.33-.54-.25-.81-.38a9.86,9.86,0,0,1-.92-.46,12,12,0,0,1-1.65-1.12c-3.49-2.78-5.8-7.43-6.38-13.65L509.75,59.2l0-6.3L479.2,70.53v3.18c0,1.28.06,2.51.17,3.7,0,.39.12.75.16,1.14.1.77.19,1.54.34,2.27.08.43.2.83.31,1.25.15.63.29,1.27.48,1.86.13.43.3.81.45,1.22s.39,1.09.62,1.59.38.75.58,1.12.49.94.76,1.38.47.67.71,1,.57.8.88,1.17.55.59.83.87.65.67,1,1,.62.48.93.72.74.54,1.13.78C494,98.15,501.52,98.18,509.85,94.15Z"/><ellipse class="cls-5" cx="504.35" cy="138.11" rx="13.85" ry="11.11"/><ellipse class="cls-5" cx="565.47" cy="127" rx="12.28" ry="11.11"/><path class="cls-6" d="M899.69,505.79c-.83,1.52-1.69,3-2.49,4.52A36.1,36.1,0,0,0,895,515c-.89,2.42-2.55,7.14-.46,9.33,3.14,3.31,8.27.48,10.82-1.86a102.2,102.2,0,0,0,10.57-11.25,13.77,13.77,0,0,0,3.18-5.74c1.31-6.65-2.58-16.07-10.74-13.86-3,.8-4.25,2.89-5,5.6A37.63,37.63,0,0,1,899.69,505.79Z"/><rect class="cls-7" x="904.67" y="483.24" width="10.93" height="19.37" rx="5.25" transform="translate(1820.28 985.84) rotate(180)"/><path class="cls-6" d="M837.09,424.12l23-93.6,23.3-12.33L911,327.76l10.68,21.1-3,70.9v66.75a6.6,6.6,0,0,1-6.6,6.61h-4.54a6.61,6.61,0,0,1-6.58-6.05l-6.95-80.21-2.3-31.36-12.13-2.32-23.1,60.61Z"/><path class="cls-6" d="M817,492.07a10.92,10.92,0,0,1,0-6.76l21.15-65.15A10.94,10.94,0,0,1,859,426.91l-21.15,65.15a10.94,10.94,0,0,1-20.81,0Z"/><path class="cls-7" d="M822.46,506c.78.72,1.58,1.43,2.42,2.1a7.61,7.61,0,0,0,1.16.7l.21.09a12.58,12.58,0,0,1,2.39.16c.09-.22.18-.45.26-.68l4.67-14.4a7.29,7.29,0,0,0-13.87-4.51l-3.32,10.24C818.34,501.81,820.31,504,822.46,506Z"/><path class="cls-6" d="M829.09,509.66l2.42-5.54h0a2.87,2.87,0,0,0-.08-2.64c-1.11-2.11-4.21-3.82-6.41-5.73a26.35,26.35,0,0,1-5-6.5,20.25,20.25,0,0,0-5.6-6.36c-5.2-3.67-16.31-3.93-18.16.26a3,3,0,0,0-.53,1.31l-2.25,5.6,10.79,3.67.73.42c3,1.7,6.08,3.38,8.29,5.43s3.44,4.22,6.39,5.74a13.42,13.42,0,0,0,5.82,1.37Z"/><path class="cls-18" d="M812.39,487.85c-5.21-3.67-16.31-3.93-18.17.26-1.08,1.5-.55,3.58,1,5.36,1.82,2.15,4.81,3.95,7.78,5.64s6.08,3.38,8.3,5.43,3.44,4.22,6.38,5.74a13.48,13.48,0,0,0,8.2,1.18h0l.19-.05c.13,0,.25,0,.37-.09l.25-.08.26-.08.32-.14.16-.07,0,0c2-.95,2.82-2.73,1.9-4.48-1.11-2.11-4.21-3.82-6.4-5.73a26.16,26.16,0,0,1-5-6.5A20.21,20.21,0,0,0,812.39,487.85Z"/><path class="cls-5" d="M857.92,267.28,824,230.8a20.88,20.88,0,0,1-5.22-18.08l14.63-43a9.16,9.16,0,1,1,18,3.45l-14.62,43a2.5,2.5,0,0,0,.63,2.15l34,36.48a9.16,9.16,0,1,1-13.41,12.48Z"/><path class="cls-4" d="M870.62,253.68l-27.09-29.11a23.7,23.7,0,0,1-3.1,3.5,27,27,0,0,1-13.69,6.7.8.8,0,0,0-.42,1.34l29.32,31.51c4.8,5.17,12.05,6.23,16.19,2.38S875.43,258.84,870.62,253.68Z"/><path class="cls-18" d="M919.32,360.31c-4.24,3.9-12.21,4-20.47,2.32a78.58,78.58,0,0,1-23.4-8.82h0c-1-.62-11.27-5.36-18-9a7.56,7.56,0,0,1-3.5-9.39c6.6-16.76,10.58-36.67,5-53.26a80.12,80.12,0,0,1-2.8-10.05V270l-.05,1.89c-1.86-9.71-.46-18.72,10.47-25.1a16.56,16.56,0,0,1,8.14-1.73,25.33,25.33,0,0,1,4.52.31c20.85,3.8,31.89,10.52,38.17,20.83,4.22,6.89,6.32,15.41,7.8,25.74C927.48,307.29,927.13,353.12,919.32,360.31Z"/><path class="cls-18" d="M856,278.08l.21.49v-6.44a2,2,0,0,1-.05-.26Z"/><path class="cls-4" d="M919.32,360.31c-4.24,3.9-12.21,4-20.47,2.32a23.05,23.05,0,0,1,2.47-8.42c6.92-11.24,7.81-14.46,6.42-27.78-.55-5.27-1.09-10.68.31-15.78,1.34-4.85,4.41-9.55,3.47-14.49-.4-2.23-1.62-4.22-2.53-6.3a24.26,24.26,0,0,1-1.56-14.05,13.16,13.16,0,0,1,3.34-7,9.5,9.5,0,0,1,6.69-2.59c4.22,6.89,6.32,15.41,7.8,25.74C927.48,307.29,927.13,353.12,919.32,360.31Z"/><path class="cls-5" d="M920.09,277.1,954,240.61a20.86,20.86,0,0,0,5.21-18.07L951,180.78a9.16,9.16,0,1,0-18,3.45L941.25,226a2.5,2.5,0,0,1-.63,2.15l-34,36.49a9.16,9.16,0,0,0,13.42,12.48Z"/><path class="cls-4" d="M949,245.3c-8.65,0-12.51-7.41-11.6-14.05l-30,32.24c-4.81,5.17-5.34,12.48-1.21,16.32s11.39,2.79,16.2-2.37l28.71-30.86a.8.8,0,0,0-.68-1.35A13.11,13.11,0,0,1,949,245.3Z"/><path class="cls-24" d="M870.61,260.44l2.44,6.84a3.31,3.31,0,0,0,5.48.16l4.5-5.81Z"/><path class="cls-7" d="M899.05,258.51c-3.39,3.81-7,8.05-10,11.36a3,3,0,0,1-4.72-.25l-7.84-7.83-9.43,1.68a1.88,1.88,0,0,1-2.21-1.85V258.7a13.73,13.73,0,0,1,10.85-13.42,31.76,31.76,0,0,1,6.58-.68,27.61,27.61,0,0,1,15.81,4.58A6.31,6.31,0,0,1,899.05,258.51Z"/><path class="cls-8" d="M893.31,251.56a6.25,6.25,0,0,1-2.28,4.67,9.65,9.65,0,0,1-.92.7,12.57,12.57,0,0,1-7,2c-3.75,0-7-1.38-8.75-3.48l0,0-.07-.11a6,6,0,0,1-1.28-2.67,5.37,5.37,0,0,1-.11-1.06,5.29,5.29,0,0,1,.11-1.06,5.84,5.84,0,0,1,1.28-2.66c1.75-2.18,5-3.61,8.84-3.61a12.62,12.62,0,0,1,7,2,9.45,9.45,0,0,1,1.28,1A6.12,6.12,0,0,1,893.31,251.56Z"/><path class="cls-5" d="M890.11,236.1v20.83a12.57,12.57,0,0,1-7,2c-3.75,0-7-1.38-8.75-3.48l0,0-.07-.11a6,6,0,0,1-1.28-2.67V236.1a8.56,8.56,0,0,1,7.43-8.5c.45,0,.93-.08,1.41-.08a9.32,9.32,0,0,1,2.93.59,8.51,8.51,0,0,1,3,2.1A8.63,8.63,0,0,1,890.11,236.1Z"/><path class="cls-24" d="M876.31,265.82l-1.86-1.19-7.35,42.82a6.85,6.85,0,0,0,.58,3.87l6.58,13.75a1.48,1.48,0,0,0,2.6.26l7.09-9.95Z"/><path class="cls-12" d="M870.07,202.9c-.41,15.83,31.65,3.07,26-4.77-1.47-2-4.08-2.92-6.57-3.29C884.37,194.08,870.26,195.66,870.07,202.9Z"/><path class="cls-12" d="M861.62,217c-3.65,11.58,2.27,23.75,13.25,27.2a19.8,19.8,0,0,0,12.91-.33,22.34,22.34,0,0,0,13.51-14.39,23.68,23.68,0,0,0,.94-4.48,22.85,22.85,0,0,0-.37-7.22,21.39,21.39,0,0,0-5.13-10,20,20,0,0,0-8.68-5.51c-.41-.13-.85-.25-1.27-.35a19.86,19.86,0,0,0-8.29-.25A22.13,22.13,0,0,0,861.62,217Z"/><path class="cls-5" d="M856,219.31c-3.4,10.82,3.09,22.5,14.5,26.09a22.29,22.29,0,0,0,13.33.08,20.21,20.21,0,0,0,13.49-13.18c3.41-10.83-3.08-22.51-14.48-26.1-.43-.14-.89-.26-1.33-.37C870.48,203.06,859.25,208.88,856,219.31Z"/><path class="cls-5" d="M860.2,205.19h0a3.31,3.31,0,0,0-.31,4.68l7.35,8.39a3.33,3.33,0,0,0,4.68.31h0a3.33,3.33,0,0,0,.31-4.68l-7.36-8.39A3.32,3.32,0,0,0,860.2,205.19Z"/><path class="cls-12" d="M892.8,225.17a7.08,7.08,0,0,0-.61-3.9l-1-1.9c0-.06-.08-.11-.11-.17,1-4.74-.43-10.71-3.65-14.08l6.22,4.49,1,3.66,1.1-3.51a21.69,21.69,0,0,1,6,17.13l-7.37-2.32-.31,1Z"/><path class="cls-12" d="M877.37,205l5.46,1.72c10.44,3.28,8.38,14,5.9,21.89a2.26,2.26,0,0,0,4.32,1.36l2.27-7.2c1.38.61,2.76,1.11,3,.82s1.29-1.61,2.92-3.47a21.54,21.54,0,0,0-5.18-10,20,20,0,0,0-8.69-5.51c-.41-.13-.86-.26-1.29-.36a20.13,20.13,0,0,0-8.36,0Z"/><path class="cls-11" d="M866.61,229a9.45,9.45,0,0,1-9.11-8,1.37,1.37,0,0,1,1.4-1.58l16,.52a1.34,1.34,0,0,1,1.31,1.55A9.44,9.44,0,0,1,866.61,229Z"/><circle class="cls-5" cx="844.29" cy="172.86" r="10.71" transform="translate(125.05 647.63) rotate(-45)"/><circle class="cls-5" cx="940.8" cy="183.9" r="10.71" transform="translate(145.52 719.11) rotate(-45)"/><g class="cls-2"><ellipse class="cls-3" cx="856" cy="506.98" rx="57.6" ry="24.04"/></g></g></g></g></svg>