<svg xmlns="http://www.w3.org/2000/svg" xmlns:xlink="http://www.w3.org/1999/xlink" viewBox="0 0 99.38 95.55"><defs><style>.cls-1{fill:none;}.cls-2{isolation:isolate;}.cls-3{fill:#94e4ff;}.cls-4{fill:#28495c;}.cls-5,.cls-7{mix-blend-mode:screen;}.cls-6{clip-path:url(#clip-path);}.cls-7{fill:#0a1217;}.cls-8{fill:#2282ff;}.cls-9{fill:#fff;}.cls-10,.cls-12{fill:#f7d5a0;}.cls-11{fill:#78ceff;}.cls-12{mix-blend-mode:multiply;}.cls-13{fill:#aee2ff;}.cls-14{fill:#3f51cb;}.cls-15{fill:#5a9bbf;}.cls-16{fill:#2d5268;}.cls-17{fill:#3c6d8a;}.cls-18{fill:#1e3745;}.cls-19{fill:#121212;}</style><clipPath id="clip-path"><rect class="cls-1" x="17.18" y="19.4" width="82.72" height="43.92" rx="5.52" transform="translate(99.91 -17.18) rotate(90)"/></clipPath></defs><title>image-people-message</title><g class="cls-2"><g id="Layer_2" data-name="Layer 2"><g id="Layer_1-2" data-name="Layer 1"><ellipse class="cls-3" cx="54.28" cy="86.26" rx="45.1" ry="9.29"/><rect class="cls-4" x="36.58" width="43.92" height="82.72" rx="5.52"/><g class="cls-5"><rect class="cls-4" x="39.6" y="3.02" width="37.89" height="76.69" rx="2.5"/></g><g class="cls-6"><rect class="cls-7" x="49.86" y="-6.99" width="11.46" height="91.08" transform="translate(43.55 -28.02) rotate(45)"/><rect class="cls-7" x="60.66" y="0.94" width="5.73" height="91.08" transform="translate(51.47 -31.3) rotate(45)"/></g><path class="cls-8" d="M66.89,56.93c-.06-.16,1.8-1.69,2.29-2.27l-1.06,0c-3.07-.09-6.34-.41-7.32-2.14C59.59,50.37,56,41.08,59,38.34c2.4-2.14,11.92-2.45,17.17-2.3,2,.05,8.66.34,10.85,1.6.82.48,1.74,1.65,1.45,4.53-.42,4.2-3.52,11-5.87,11.87a21.05,21.05,0,0,1-7.43.93C72.13,57.17,67,57.23,66.89,56.93Z"/><path class="cls-9" d="M62,42.3a.28.28,0,0,1-.28-.27.28.28,0,0,1,.26-.3c.13,0,13.13-.73,22.16-.65a.28.28,0,0,1,.28.28.29.29,0,0,1-.28.29h0c-9-.08-22,.64-22.12.64Z"/><path class="cls-9" d="M62,46.25a.28.28,0,0,1-.28-.26.28.28,0,0,1,.26-.31c.11,0,11.35-.83,21.47-1h0a.29.29,0,0,1,.28.28.28.28,0,0,1-.28.29c-10.11.14-21.33,1-21.44,1Z"/><path class="cls-9" d="M63.62,50.4a.29.29,0,0,1-.28-.28.27.27,0,0,1,.27-.29c.14,0,14-.68,21.55-.71h0a.29.29,0,0,1,.28.28.28.28,0,0,1-.28.29c-7.53,0-21.38.7-21.52.7Z"/><path class="cls-4" d="M72.5,70.06c-1.43-4.18,4.29-3.32,3.66-6.5s-2.61-5.75,0-8.42,4-.74,5.65-1.59,3.4-2.44,6.21-.4c4.38,3.19-1.39,8.94-1,10.41s5.16,1.24,6.3,5.1-4.09,5.39-4.09,5.39L79.3,70.31Z"/><path class="cls-10" d="M80.17,63c0,.5.42,2.18,0,2.88S77.9,67,77.9,67l2.16,2.61,4.34-.09L86,67.42l-.82-.72s-2.13.3-1.76-3.86S80.17,63,80.17,63Z"/><path class="cls-11" d="M78.76,66.46a17.9,17.9,0,0,0-6.67,4c-3.28,3-6.79,12.06,4.1,6.86L77,75.87l.14-1.8,8.42,1.55,1.61,2.88s6-1.57,6.44-4.12-7-7.58-8.35-7.87a5.25,5.25,0,0,1-3.17,1A4.23,4.23,0,0,1,78.76,66.46Z"/><path class="cls-11" d="M87.12,78.5,87.58,81l-4.66,2.58-4.3-.09-3.49-1.59A9.34,9.34,0,0,0,77,77.74C77.42,75.11,87.12,78.5,87.12,78.5Z"/><path class="cls-8" d="M75,71.1s13.79-.14,13.84,0-1,9.05-1,9.08-11.8.14-11.9.06A84.42,84.42,0,0,1,75,71.1Z"/><path class="cls-12" d="M80.2,63.24c0,.35.14.87.17,1.38a9.16,9.16,0,0,0,3.15.28,7.77,7.77,0,0,1-.06-2.06,5.17,5.17,0,0,0,0-.65l-2.93.69Z"/><path class="cls-10" d="M79.25,56.47a4.44,4.44,0,0,0-1.2,3.27c0,2.16,1.39,4.77,3.83,4.63s4-2.94,3.65-6.25-2.93-2.49-2.93-2.49Z"/><path class="cls-10" d="M85.09,59.84l.13,0a2.36,2.36,0,0,1,1,0c.57.17-.52,2.29-1.31,1.49A1,1,0,0,1,85.09,59.84Z"/><path class="cls-10" d="M78.5,59.71l-.12,0a2.44,2.44,0,0,0-1.06,0c-.58.14.43,2.31,1.25,1.54A.94.94,0,0,0,78.5,59.71Z"/><path class="cls-9" d="M82.43,75.65a.85.85,0,1,0-.84.85A.85.85,0,0,0,82.43,75.65Z"/><path class="cls-4" d="M78.39,55.54c.06.11,3.34,4.82,7.15,4.22s-.56-6-.56-6l-3.17,1Z"/><path class="cls-13" d="M80.21,65.84a3.15,3.15,0,0,0-2.17.87s.5,1.75,3.7,2.51l.3-1.69A7.93,7.93,0,0,1,80.21,65.84Z"/><path class="cls-13" d="M83.86,65.84a3.18,3.18,0,0,1,2.18.87s-.5,1.75-3.7,2.51L82,67.53A7.76,7.76,0,0,0,83.86,65.84Z"/><path class="cls-14" d="M88.08,79.86H75.64a.32.32,0,0,0-.32.32h0a.32.32,0,0,0,.32.31H88.08a.31.31,0,0,0,.31-.31h0A.31.31,0,0,0,88.08,79.86Z"/><path class="cls-11" d="M77.08,85.12a1.7,1.7,0,0,0-.82,2c.46,1.27,3.85.87,5.14-2.15S77.08,85.12,77.08,85.12Z"/><path class="cls-15" d="M81.22,85.32h-.35s-1.56,1.84-2.58,2.1a1.85,1.85,0,0,1-2.12-1,1.48,1.48,0,0,0,.09.67C76.7,88.31,79.83,88,81.22,85.32Z"/><path class="cls-16" d="M93.1,85.6s6.65-2.1,4.07-5.84-15.81,3.1-15.81,3.1l4.58,2.81,4.57.27Z"/><polygon class="cls-10" points="83.23 83.42 84.71 83.94 84.7 85.51 82.86 84.99 83.23 83.42"/><path class="cls-17" d="M83.49,83.33S77,79.71,72.28,79.68s-5.3,2.08-5.54,3.2,1.42,3.47,6.06,3.28,10.34-1,10.34-1Z"/><path class="cls-11" d="M84.4,83.8a3.7,3.7,0,0,1-.26,1.52,10.35,10.35,0,0,0,4.73,2c2.36.16,3.72-2.93.67-3.47A14.56,14.56,0,0,0,84.4,83.8Z"/><path class="cls-15" d="M89.68,83.9a1.46,1.46,0,0,1,.88,2.21A2.59,2.59,0,0,1,88,87.21a5,5,0,0,0,.85.13C91.19,87.5,92.55,84.51,89.68,83.9Z"/><path class="cls-8" d="M17.43,21.29c7.22-.83,41.81-1.14,44.48.15,3.53,1.72.86,11.45-1.33,13-2,1.4-13.27,1.41-18.72,1.33,1.22,1.71,3.43,2.59,4.07,3,1.64.94-8.81-1.4-12.77-3.12-6.89.23-11.19.22-12.87-.09C15.76,34.66,11.65,21.94,17.43,21.29Z"/><path class="cls-9" d="M58.54,25.51h0l-38.19-.25a.29.29,0,0,1,0-.57h0l38.19.25a.29.29,0,1,1,0,.57Z"/><path class="cls-9" d="M20.35,28.37a.29.29,0,0,1-.28-.28.28.28,0,0,1,.28-.29l37.47-.57h0a.29.29,0,0,1,.28.28.28.28,0,0,1-.28.29l-37.47.57Z"/><path class="cls-9" d="M21.49,32.21a.28.28,0,0,1-.28-.28.27.27,0,0,1,.27-.29c.26,0,25.7-1,35.4-.71a.28.28,0,0,1,.28.29.3.3,0,0,1-.29.28c-9.68-.28-35.11.7-35.37.71Z"/><path class="cls-10" d="M2.34,25a9.83,9.83,0,0,0,1.51-3.7c.29-1.94.43-2.13,0-2S2.62,21,2.62,21l-1.88.54S1.2,24.39,1.2,25,2.34,25,2.34,25Z"/><path class="cls-15" d="M11.4,24.79a29.8,29.8,0,0,1-4.51,5.57C4.41,32.63,2,28.62,3,24.79a4.64,4.64,0,0,0-2.7,0s-2.79,15.68,10.14,9.79C10.39,34.58,15.15,29.12,11.4,24.79Z"/><polygon class="cls-10" points="15.66 80.17 17.02 84.47 18.46 84.59 17.59 80.32 15.66 80.17"/><polygon class="cls-10" points="27.73 80.38 29.73 84.03 31.1 83.84 29.74 80.09 27.73 80.38"/><path class="cls-10" d="M16.51,21s-.35,2.84-2,3.77l-.12,1.54L19,27.1l1.51-1.81S19,25,19.7,21.67,16.51,21,16.51,21Z"/><path class="cls-18" d="M7.3,42.79s.22,22,9,40.2h2.18s-3.11-28.27.26-39.7L9,41Z"/><path class="cls-4" d="M17.68,41.71S29.74,80.71,31,82.38a5.2,5.2,0,0,1-2.39.21S8.14,50.67,7.81,43.66,17.68,41.71,17.68,41.71Z"/><path class="cls-19" d="M29.45,84A4.36,4.36,0,0,0,29,86.1a.17.17,0,0,0,.17.16h6.88a.16.16,0,0,0,.16-.19.94.94,0,0,0-.5-.75c-.54-.26-4-1.3-4.65-1.48a.11.11,0,0,0-.08,0,5.13,5.13,0,0,1-1.4,0A.17.17,0,0,0,29.45,84Z"/><path class="cls-19" d="M18.33,83.85a4.4,4.4,0,0,1,.45,2.41H11.56a1,1,0,0,1,.52-.94c.55-.27,4.2-1.34,4.69-1.49a4.64,4.64,0,0,0,1.55,0Z"/><path class="cls-11" d="M6.89,43.72c.76,1.15,10.11,1.77,12.09,1l4.81-14.44L21.9,25.65l-1.37-.36s-4.56,1.38-6-.54a5.5,5.5,0,0,0-3.13,0A52.9,52.9,0,0,0,6.89,43.72Z"/><path class="cls-13" d="M15.57,23.7l-2.33.94,2.1,2.59a11.58,11.58,0,0,0,1.07-1.52Z"/><path class="cls-13" d="M19.55,23.82l-3.14,1.89.18,1.77a15.16,15.16,0,0,0,4.14-2.18A7.29,7.29,0,0,0,19.55,23.82Z"/><path class="cls-12" d="M16.51,21a7.92,7.92,0,0,1-.62,2.13c.62.15,1.81.12,3.74-1.09,0-.11,0-.23.07-.35C20.4,18.3,16.51,21,16.51,21Z"/><path class="cls-10" d="M17.4,10.5A24.86,24.86,0,0,0,13,17.09l1.19.28s-1,9.49,6.87,2.53-1.43-8.72-1.43-8.72Z"/><path class="cls-4" d="M20.32,9.86c-.7-.18-2.16-3.76-4-2.68s-3.72,5.2,1.55,6.31,2.06,7.33,2.41,7c0,0,1.87,1.06,4-3.19S24.66,11,20.32,9.86Z"/><path class="cls-10" d="M20,16.82c.92-.28,1.77-.74,2.07.52s-1.82,2.2-2.2,1.48A3,3,0,0,1,20,16.82Z"/><path class="cls-10" d="M19.39,42.49s-1.91-1.67-2.79-1-1.52,3.48,2.79,2.84S19.39,42.49,19.39,42.49Z"/><path class="cls-11" d="M21.9,25.65s7.73,2.23,10,9.73c2.09,6.77-13,9.3-13,9.3a3.9,3.9,0,0,1,.1-2.62s7.36-2.51,8.13-5.5c.52-2-4.41-3.36-4.41-3.36S20.34,30.79,21.9,25.65Z"/><path class="cls-4" d="M1.13,17.28c.16-.21,2.23-.09,2.48.35a21.52,21.52,0,0,1-.49,5A3.18,3.18,0,0,1,.86,22.5C.6,22.27.59,17.68,1.13,17.28Z"/><path class="cls-10" d="M.48,19.35c-.15-.59.5-.66.69-.15S.63,19.89.48,19.35Z"/><path class="cls-10" d="M.44,20c-.16-.59.49-.65.68-.14S.58,20.59.44,20Z"/><path class="cls-10" d="M.37,20.73c-.16-.59.49-.66.69-.15S.51,21.27.37,20.73Z"/><path class="cls-10" d="M.33,21.39c-.16-.6.49-.66.69-.15S.47,21.93.33,21.39Z"/></g></g></g></svg>